<?xml version="1.0" encoding="utf-8" standalone="no"?>
<!DOCTYPE svg PUBLIC "-//W3C//DTD SVG 1.1//EN"
  "http://www.w3.org/Graphics/SVG/1.1/DTD/svg11.dtd">
<svg height="720pt" version="1.1" viewBox="0 0 1440 720" width="1440pt" xmlns="http://www.w3.org/2000/svg" xmlns:xlink="http://www.w3.org/1999/xlink">
 <metadata>
  <rdf:RDF xmlns:cc="http://creativecommons.org/ns#" xmlns:dc="http://purl.org/dc/elements/1.1/" xmlns:rdf="http://www.w3.org/1999/02/22-rdf-syntax-ns#">
   <cc:Work>
    <dc:type rdf:resource="http://purl.org/dc/dcmitype/StillImage"/>
    <dc:date>2021-11-05T21:28:56.495932</dc:date>
    <dc:format>image/svg+xml</dc:format>
    <dc:creator>
     <cc:Agent>
      <dc:title>Matplotlib v3.4.2, https://matplotlib.org/</dc:title>
     </cc:Agent>
    </dc:creator>
   </cc:Work>
  </rdf:RDF>
 </metadata>
 <defs>
  <style type="text/css">*{stroke-linecap:butt;stroke-linejoin:round;}</style>
 </defs>
 <g id="figure_1">
  <g id="patch_1">
   <path d="M 0 720 
L 1440 720 
L 1440 0 
L 0 0 
z
" style="fill:#ffffff;"/>
  </g>
  <g id="axes_1">
   <g id="patch_2">
    <path d="M 180 640.8 
L 1296 640.8 
L 1296 86.4 
L 180 86.4 
z
" style="fill:#ffffff;"/>
   </g>
   <g id="matplotlib.axis_1">
    <g id="xtick_1">
     <g id="line2d_1">
      <defs>
       <path d="M 0 0 
L 0 3.5 
" id="m2c6f5b6cb7" style="stroke:#000000;stroke-width:0.8;"/>
      </defs>
      <g>
       <use style="stroke:#000000;stroke-width:0.8;" x="230.727273" xlink:href="#m2c6f5b6cb7" y="640.8"/>
      </g>
     </g>
     <g id="text_1">
      <!-- 0 -->
      <g transform="translate(227.546023 655.398438)scale(0.1 -0.1)">
       <defs>
        <path d="M 2034 4250 
Q 1547 4250 1301 3770 
Q 1056 3291 1056 2328 
Q 1056 1369 1301 889 
Q 1547 409 2034 409 
Q 2525 409 2770 889 
Q 3016 1369 3016 2328 
Q 3016 3291 2770 3770 
Q 2525 4250 2034 4250 
z
M 2034 4750 
Q 2819 4750 3233 4129 
Q 3647 3509 3647 2328 
Q 3647 1150 3233 529 
Q 2819 -91 2034 -91 
Q 1250 -91 836 529 
Q 422 1150 422 2328 
Q 422 3509 836 4129 
Q 1250 4750 2034 4750 
z
" id="DejaVuSans-30" transform="scale(0.015625)"/>
       </defs>
       <use xlink:href="#DejaVuSans-30"/>
      </g>
     </g>
    </g>
    <g id="xtick_2">
     <g id="line2d_2">
      <g>
       <use style="stroke:#000000;stroke-width:0.8;" x="433.636364" xlink:href="#m2c6f5b6cb7" y="640.8"/>
      </g>
     </g>
     <g id="text_2">
      <!-- 2000 -->
      <g transform="translate(420.911364 655.398438)scale(0.1 -0.1)">
       <defs>
        <path d="M 1228 531 
L 3431 531 
L 3431 0 
L 469 0 
L 469 531 
Q 828 903 1448 1529 
Q 2069 2156 2228 2338 
Q 2531 2678 2651 2914 
Q 2772 3150 2772 3378 
Q 2772 3750 2511 3984 
Q 2250 4219 1831 4219 
Q 1534 4219 1204 4116 
Q 875 4013 500 3803 
L 500 4441 
Q 881 4594 1212 4672 
Q 1544 4750 1819 4750 
Q 2544 4750 2975 4387 
Q 3406 4025 3406 3419 
Q 3406 3131 3298 2873 
Q 3191 2616 2906 2266 
Q 2828 2175 2409 1742 
Q 1991 1309 1228 531 
z
" id="DejaVuSans-32" transform="scale(0.015625)"/>
       </defs>
       <use xlink:href="#DejaVuSans-32"/>
       <use x="63.623047" xlink:href="#DejaVuSans-30"/>
       <use x="127.246094" xlink:href="#DejaVuSans-30"/>
       <use x="190.869141" xlink:href="#DejaVuSans-30"/>
      </g>
     </g>
    </g>
    <g id="xtick_3">
     <g id="line2d_3">
      <g>
       <use style="stroke:#000000;stroke-width:0.8;" x="636.545455" xlink:href="#m2c6f5b6cb7" y="640.8"/>
      </g>
     </g>
     <g id="text_3">
      <!-- 4000 -->
      <g transform="translate(623.820455 655.398438)scale(0.1 -0.1)">
       <defs>
        <path d="M 2419 4116 
L 825 1625 
L 2419 1625 
L 2419 4116 
z
M 2253 4666 
L 3047 4666 
L 3047 1625 
L 3713 1625 
L 3713 1100 
L 3047 1100 
L 3047 0 
L 2419 0 
L 2419 1100 
L 313 1100 
L 313 1709 
L 2253 4666 
z
" id="DejaVuSans-34" transform="scale(0.015625)"/>
       </defs>
       <use xlink:href="#DejaVuSans-34"/>
       <use x="63.623047" xlink:href="#DejaVuSans-30"/>
       <use x="127.246094" xlink:href="#DejaVuSans-30"/>
       <use x="190.869141" xlink:href="#DejaVuSans-30"/>
      </g>
     </g>
    </g>
    <g id="xtick_4">
     <g id="line2d_4">
      <g>
       <use style="stroke:#000000;stroke-width:0.8;" x="839.454545" xlink:href="#m2c6f5b6cb7" y="640.8"/>
      </g>
     </g>
     <g id="text_4">
      <!-- 6000 -->
      <g transform="translate(826.729545 655.398438)scale(0.1 -0.1)">
       <defs>
        <path d="M 2113 2584 
Q 1688 2584 1439 2293 
Q 1191 2003 1191 1497 
Q 1191 994 1439 701 
Q 1688 409 2113 409 
Q 2538 409 2786 701 
Q 3034 994 3034 1497 
Q 3034 2003 2786 2293 
Q 2538 2584 2113 2584 
z
M 3366 4563 
L 3366 3988 
Q 3128 4100 2886 4159 
Q 2644 4219 2406 4219 
Q 1781 4219 1451 3797 
Q 1122 3375 1075 2522 
Q 1259 2794 1537 2939 
Q 1816 3084 2150 3084 
Q 2853 3084 3261 2657 
Q 3669 2231 3669 1497 
Q 3669 778 3244 343 
Q 2819 -91 2113 -91 
Q 1303 -91 875 529 
Q 447 1150 447 2328 
Q 447 3434 972 4092 
Q 1497 4750 2381 4750 
Q 2619 4750 2861 4703 
Q 3103 4656 3366 4563 
z
" id="DejaVuSans-36" transform="scale(0.015625)"/>
       </defs>
       <use xlink:href="#DejaVuSans-36"/>
       <use x="63.623047" xlink:href="#DejaVuSans-30"/>
       <use x="127.246094" xlink:href="#DejaVuSans-30"/>
       <use x="190.869141" xlink:href="#DejaVuSans-30"/>
      </g>
     </g>
    </g>
    <g id="xtick_5">
     <g id="line2d_5">
      <g>
       <use style="stroke:#000000;stroke-width:0.8;" x="1042.363636" xlink:href="#m2c6f5b6cb7" y="640.8"/>
      </g>
     </g>
     <g id="text_5">
      <!-- 8000 -->
      <g transform="translate(1029.638636 655.398438)scale(0.1 -0.1)">
       <defs>
        <path d="M 2034 2216 
Q 1584 2216 1326 1975 
Q 1069 1734 1069 1313 
Q 1069 891 1326 650 
Q 1584 409 2034 409 
Q 2484 409 2743 651 
Q 3003 894 3003 1313 
Q 3003 1734 2745 1975 
Q 2488 2216 2034 2216 
z
M 1403 2484 
Q 997 2584 770 2862 
Q 544 3141 544 3541 
Q 544 4100 942 4425 
Q 1341 4750 2034 4750 
Q 2731 4750 3128 4425 
Q 3525 4100 3525 3541 
Q 3525 3141 3298 2862 
Q 3072 2584 2669 2484 
Q 3125 2378 3379 2068 
Q 3634 1759 3634 1313 
Q 3634 634 3220 271 
Q 2806 -91 2034 -91 
Q 1263 -91 848 271 
Q 434 634 434 1313 
Q 434 1759 690 2068 
Q 947 2378 1403 2484 
z
M 1172 3481 
Q 1172 3119 1398 2916 
Q 1625 2713 2034 2713 
Q 2441 2713 2670 2916 
Q 2900 3119 2900 3481 
Q 2900 3844 2670 4047 
Q 2441 4250 2034 4250 
Q 1625 4250 1398 4047 
Q 1172 3844 1172 3481 
z
" id="DejaVuSans-38" transform="scale(0.015625)"/>
       </defs>
       <use xlink:href="#DejaVuSans-38"/>
       <use x="63.623047" xlink:href="#DejaVuSans-30"/>
       <use x="127.246094" xlink:href="#DejaVuSans-30"/>
       <use x="190.869141" xlink:href="#DejaVuSans-30"/>
      </g>
     </g>
    </g>
    <g id="xtick_6">
     <g id="line2d_6">
      <g>
       <use style="stroke:#000000;stroke-width:0.8;" x="1245.272727" xlink:href="#m2c6f5b6cb7" y="640.8"/>
      </g>
     </g>
     <g id="text_6">
      <!-- 10000 -->
      <g transform="translate(1229.366477 655.398438)scale(0.1 -0.1)">
       <defs>
        <path d="M 794 531 
L 1825 531 
L 1825 4091 
L 703 3866 
L 703 4441 
L 1819 4666 
L 2450 4666 
L 2450 531 
L 3481 531 
L 3481 0 
L 794 0 
L 794 531 
z
" id="DejaVuSans-31" transform="scale(0.015625)"/>
       </defs>
       <use xlink:href="#DejaVuSans-31"/>
       <use x="63.623047" xlink:href="#DejaVuSans-30"/>
       <use x="127.246094" xlink:href="#DejaVuSans-30"/>
       <use x="190.869141" xlink:href="#DejaVuSans-30"/>
       <use x="254.492188" xlink:href="#DejaVuSans-30"/>
      </g>
     </g>
    </g>
    <g id="text_7">
     <!-- time (s) -->
     <g transform="translate(718.608594 669.076563)scale(0.1 -0.1)">
      <defs>
       <path d="M 1172 4494 
L 1172 3500 
L 2356 3500 
L 2356 3053 
L 1172 3053 
L 1172 1153 
Q 1172 725 1289 603 
Q 1406 481 1766 481 
L 2356 481 
L 2356 0 
L 1766 0 
Q 1100 0 847 248 
Q 594 497 594 1153 
L 594 3053 
L 172 3053 
L 172 3500 
L 594 3500 
L 594 4494 
L 1172 4494 
z
" id="DejaVuSans-74" transform="scale(0.015625)"/>
       <path d="M 603 3500 
L 1178 3500 
L 1178 0 
L 603 0 
L 603 3500 
z
M 603 4863 
L 1178 4863 
L 1178 4134 
L 603 4134 
L 603 4863 
z
" id="DejaVuSans-69" transform="scale(0.015625)"/>
       <path d="M 3328 2828 
Q 3544 3216 3844 3400 
Q 4144 3584 4550 3584 
Q 5097 3584 5394 3201 
Q 5691 2819 5691 2113 
L 5691 0 
L 5113 0 
L 5113 2094 
Q 5113 2597 4934 2840 
Q 4756 3084 4391 3084 
Q 3944 3084 3684 2787 
Q 3425 2491 3425 1978 
L 3425 0 
L 2847 0 
L 2847 2094 
Q 2847 2600 2669 2842 
Q 2491 3084 2119 3084 
Q 1678 3084 1418 2786 
Q 1159 2488 1159 1978 
L 1159 0 
L 581 0 
L 581 3500 
L 1159 3500 
L 1159 2956 
Q 1356 3278 1631 3431 
Q 1906 3584 2284 3584 
Q 2666 3584 2933 3390 
Q 3200 3197 3328 2828 
z
" id="DejaVuSans-6d" transform="scale(0.015625)"/>
       <path d="M 3597 1894 
L 3597 1613 
L 953 1613 
Q 991 1019 1311 708 
Q 1631 397 2203 397 
Q 2534 397 2845 478 
Q 3156 559 3463 722 
L 3463 178 
Q 3153 47 2828 -22 
Q 2503 -91 2169 -91 
Q 1331 -91 842 396 
Q 353 884 353 1716 
Q 353 2575 817 3079 
Q 1281 3584 2069 3584 
Q 2775 3584 3186 3129 
Q 3597 2675 3597 1894 
z
M 3022 2063 
Q 3016 2534 2758 2815 
Q 2500 3097 2075 3097 
Q 1594 3097 1305 2825 
Q 1016 2553 972 2059 
L 3022 2063 
z
" id="DejaVuSans-65" transform="scale(0.015625)"/>
       <path id="DejaVuSans-20" transform="scale(0.015625)"/>
       <path d="M 1984 4856 
Q 1566 4138 1362 3434 
Q 1159 2731 1159 2009 
Q 1159 1288 1364 580 
Q 1569 -128 1984 -844 
L 1484 -844 
Q 1016 -109 783 600 
Q 550 1309 550 2009 
Q 550 2706 781 3412 
Q 1013 4119 1484 4856 
L 1984 4856 
z
" id="DejaVuSans-28" transform="scale(0.015625)"/>
       <path d="M 2834 3397 
L 2834 2853 
Q 2591 2978 2328 3040 
Q 2066 3103 1784 3103 
Q 1356 3103 1142 2972 
Q 928 2841 928 2578 
Q 928 2378 1081 2264 
Q 1234 2150 1697 2047 
L 1894 2003 
Q 2506 1872 2764 1633 
Q 3022 1394 3022 966 
Q 3022 478 2636 193 
Q 2250 -91 1575 -91 
Q 1294 -91 989 -36 
Q 684 19 347 128 
L 347 722 
Q 666 556 975 473 
Q 1284 391 1588 391 
Q 1994 391 2212 530 
Q 2431 669 2431 922 
Q 2431 1156 2273 1281 
Q 2116 1406 1581 1522 
L 1381 1569 
Q 847 1681 609 1914 
Q 372 2147 372 2553 
Q 372 3047 722 3315 
Q 1072 3584 1716 3584 
Q 2034 3584 2315 3537 
Q 2597 3491 2834 3397 
z
" id="DejaVuSans-73" transform="scale(0.015625)"/>
       <path d="M 513 4856 
L 1013 4856 
Q 1481 4119 1714 3412 
Q 1947 2706 1947 2009 
Q 1947 1309 1714 600 
Q 1481 -109 1013 -844 
L 513 -844 
Q 928 -128 1133 580 
Q 1338 1288 1338 2009 
Q 1338 2731 1133 3434 
Q 928 4138 513 4856 
z
" id="DejaVuSans-29" transform="scale(0.015625)"/>
      </defs>
      <use xlink:href="#DejaVuSans-74"/>
      <use x="39.208984" xlink:href="#DejaVuSans-69"/>
      <use x="66.992188" xlink:href="#DejaVuSans-6d"/>
      <use x="164.404297" xlink:href="#DejaVuSans-65"/>
      <use x="225.927734" xlink:href="#DejaVuSans-20"/>
      <use x="257.714844" xlink:href="#DejaVuSans-28"/>
      <use x="296.728516" xlink:href="#DejaVuSans-73"/>
      <use x="348.828125" xlink:href="#DejaVuSans-29"/>
     </g>
    </g>
   </g>
   <g id="matplotlib.axis_2">
    <g id="ytick_1">
     <g id="line2d_7">
      <defs>
       <path d="M 0 0 
L -3.5 0 
" id="m75ebc4ebab" style="stroke:#000000;stroke-width:0.8;"/>
      </defs>
      <g>
       <use style="stroke:#000000;stroke-width:0.8;" x="180" xlink:href="#m75ebc4ebab" y="566.881934"/>
      </g>
     </g>
     <g id="text_8">
      <!-- −2 -->
      <g transform="translate(158.257812 570.681152)scale(0.1 -0.1)">
       <defs>
        <path d="M 678 2272 
L 4684 2272 
L 4684 1741 
L 678 1741 
L 678 2272 
z
" id="DejaVuSans-2212" transform="scale(0.015625)"/>
       </defs>
       <use xlink:href="#DejaVuSans-2212"/>
       <use x="83.789062" xlink:href="#DejaVuSans-32"/>
      </g>
     </g>
    </g>
    <g id="ytick_2">
     <g id="line2d_8">
      <g>
       <use style="stroke:#000000;stroke-width:0.8;" x="180" xlink:href="#m75ebc4ebab" y="480.979682"/>
      </g>
     </g>
     <g id="text_9">
      <!-- 0 -->
      <g transform="translate(166.6375 484.778901)scale(0.1 -0.1)">
       <use xlink:href="#DejaVuSans-30"/>
      </g>
     </g>
    </g>
    <g id="ytick_3">
     <g id="line2d_9">
      <g>
       <use style="stroke:#000000;stroke-width:0.8;" x="180" xlink:href="#m75ebc4ebab" y="395.07743"/>
      </g>
     </g>
     <g id="text_10">
      <!-- 2 -->
      <g transform="translate(166.6375 398.876649)scale(0.1 -0.1)">
       <use xlink:href="#DejaVuSans-32"/>
      </g>
     </g>
    </g>
    <g id="ytick_4">
     <g id="line2d_10">
      <g>
       <use style="stroke:#000000;stroke-width:0.8;" x="180" xlink:href="#m75ebc4ebab" y="309.175179"/>
      </g>
     </g>
     <g id="text_11">
      <!-- 4 -->
      <g transform="translate(166.6375 312.974397)scale(0.1 -0.1)">
       <use xlink:href="#DejaVuSans-34"/>
      </g>
     </g>
    </g>
    <g id="ytick_5">
     <g id="line2d_11">
      <g>
       <use style="stroke:#000000;stroke-width:0.8;" x="180" xlink:href="#m75ebc4ebab" y="223.272927"/>
      </g>
     </g>
     <g id="text_12">
      <!-- 6 -->
      <g transform="translate(166.6375 227.072146)scale(0.1 -0.1)">
       <use xlink:href="#DejaVuSans-36"/>
      </g>
     </g>
    </g>
    <g id="ytick_6">
     <g id="line2d_12">
      <g>
       <use style="stroke:#000000;stroke-width:0.8;" x="180" xlink:href="#m75ebc4ebab" y="137.370675"/>
      </g>
     </g>
     <g id="text_13">
      <!-- 8 -->
      <g transform="translate(166.6375 141.169894)scale(0.1 -0.1)">
       <use xlink:href="#DejaVuSans-38"/>
      </g>
     </g>
    </g>
    <g id="text_14">
     <!-- Orientation/ aVel/ lVel -->
     <g transform="translate(152.178125 417.824219)rotate(-90)scale(0.1 -0.1)">
      <defs>
       <path d="M 2522 4238 
Q 1834 4238 1429 3725 
Q 1025 3213 1025 2328 
Q 1025 1447 1429 934 
Q 1834 422 2522 422 
Q 3209 422 3611 934 
Q 4013 1447 4013 2328 
Q 4013 3213 3611 3725 
Q 3209 4238 2522 4238 
z
M 2522 4750 
Q 3503 4750 4090 4092 
Q 4678 3434 4678 2328 
Q 4678 1225 4090 567 
Q 3503 -91 2522 -91 
Q 1538 -91 948 565 
Q 359 1222 359 2328 
Q 359 3434 948 4092 
Q 1538 4750 2522 4750 
z
" id="DejaVuSans-4f" transform="scale(0.015625)"/>
       <path d="M 2631 2963 
Q 2534 3019 2420 3045 
Q 2306 3072 2169 3072 
Q 1681 3072 1420 2755 
Q 1159 2438 1159 1844 
L 1159 0 
L 581 0 
L 581 3500 
L 1159 3500 
L 1159 2956 
Q 1341 3275 1631 3429 
Q 1922 3584 2338 3584 
Q 2397 3584 2469 3576 
Q 2541 3569 2628 3553 
L 2631 2963 
z
" id="DejaVuSans-72" transform="scale(0.015625)"/>
       <path d="M 3513 2113 
L 3513 0 
L 2938 0 
L 2938 2094 
Q 2938 2591 2744 2837 
Q 2550 3084 2163 3084 
Q 1697 3084 1428 2787 
Q 1159 2491 1159 1978 
L 1159 0 
L 581 0 
L 581 3500 
L 1159 3500 
L 1159 2956 
Q 1366 3272 1645 3428 
Q 1925 3584 2291 3584 
Q 2894 3584 3203 3211 
Q 3513 2838 3513 2113 
z
" id="DejaVuSans-6e" transform="scale(0.015625)"/>
       <path d="M 2194 1759 
Q 1497 1759 1228 1600 
Q 959 1441 959 1056 
Q 959 750 1161 570 
Q 1363 391 1709 391 
Q 2188 391 2477 730 
Q 2766 1069 2766 1631 
L 2766 1759 
L 2194 1759 
z
M 3341 1997 
L 3341 0 
L 2766 0 
L 2766 531 
Q 2569 213 2275 61 
Q 1981 -91 1556 -91 
Q 1019 -91 701 211 
Q 384 513 384 1019 
Q 384 1609 779 1909 
Q 1175 2209 1959 2209 
L 2766 2209 
L 2766 2266 
Q 2766 2663 2505 2880 
Q 2244 3097 1772 3097 
Q 1472 3097 1187 3025 
Q 903 2953 641 2809 
L 641 3341 
Q 956 3463 1253 3523 
Q 1550 3584 1831 3584 
Q 2591 3584 2966 3190 
Q 3341 2797 3341 1997 
z
" id="DejaVuSans-61" transform="scale(0.015625)"/>
       <path d="M 1959 3097 
Q 1497 3097 1228 2736 
Q 959 2375 959 1747 
Q 959 1119 1226 758 
Q 1494 397 1959 397 
Q 2419 397 2687 759 
Q 2956 1122 2956 1747 
Q 2956 2369 2687 2733 
Q 2419 3097 1959 3097 
z
M 1959 3584 
Q 2709 3584 3137 3096 
Q 3566 2609 3566 1747 
Q 3566 888 3137 398 
Q 2709 -91 1959 -91 
Q 1206 -91 779 398 
Q 353 888 353 1747 
Q 353 2609 779 3096 
Q 1206 3584 1959 3584 
z
" id="DejaVuSans-6f" transform="scale(0.015625)"/>
       <path d="M 1625 4666 
L 2156 4666 
L 531 -594 
L 0 -594 
L 1625 4666 
z
" id="DejaVuSans-2f" transform="scale(0.015625)"/>
       <path d="M 1831 0 
L 50 4666 
L 709 4666 
L 2188 738 
L 3669 4666 
L 4325 4666 
L 2547 0 
L 1831 0 
z
" id="DejaVuSans-56" transform="scale(0.015625)"/>
       <path d="M 603 4863 
L 1178 4863 
L 1178 0 
L 603 0 
L 603 4863 
z
" id="DejaVuSans-6c" transform="scale(0.015625)"/>
      </defs>
      <use xlink:href="#DejaVuSans-4f"/>
      <use x="78.710938" xlink:href="#DejaVuSans-72"/>
      <use x="119.824219" xlink:href="#DejaVuSans-69"/>
      <use x="147.607422" xlink:href="#DejaVuSans-65"/>
      <use x="209.130859" xlink:href="#DejaVuSans-6e"/>
      <use x="272.509766" xlink:href="#DejaVuSans-74"/>
      <use x="311.71875" xlink:href="#DejaVuSans-61"/>
      <use x="372.998047" xlink:href="#DejaVuSans-74"/>
      <use x="412.207031" xlink:href="#DejaVuSans-69"/>
      <use x="439.990234" xlink:href="#DejaVuSans-6f"/>
      <use x="501.171875" xlink:href="#DejaVuSans-6e"/>
      <use x="564.550781" xlink:href="#DejaVuSans-2f"/>
      <use x="598.242188" xlink:href="#DejaVuSans-20"/>
      <use x="630.029297" xlink:href="#DejaVuSans-61"/>
      <use x="691.308594" xlink:href="#DejaVuSans-56"/>
      <use x="751.966797" xlink:href="#DejaVuSans-65"/>
      <use x="813.490234" xlink:href="#DejaVuSans-6c"/>
      <use x="841.273438" xlink:href="#DejaVuSans-2f"/>
      <use x="874.964844" xlink:href="#DejaVuSans-20"/>
      <use x="906.751953" xlink:href="#DejaVuSans-6c"/>
      <use x="934.535156" xlink:href="#DejaVuSans-56"/>
      <use x="995.193359" xlink:href="#DejaVuSans-65"/>
      <use x="1056.716797" xlink:href="#DejaVuSans-6c"/>
     </g>
    </g>
   </g>
   <g id="line2d_13">
    <path clip-path="url(#pc43c124e72)" d="M 230.727273 413.512211 
L 376.618909 413.42591 
L 376.821818 412.996104 
L 377.126182 411.723608 
L 377.532 408.931929 
L 378.140727 402.781605 
L 379.256727 388.222039 
L 380.271273 376.174195 
L 380.778545 372.150758 
L 381.184364 370.293056 
L 381.387273 369.863249 
L 565.730182 369.821447 
L 566.034545 369.447696 
L 566.440364 368.392711 
L 566.947636 366.279277 
L 567.657818 362.227685 
L 569.484 351.321916 
L 569.991273 349.545336 
L 570.397091 348.804223 
L 570.6 348.720783 
L 674.489455 348.639982 
L 674.793818 348.319958 
L 675.199636 347.541905 
L 675.706909 346.077599 
L 675.808364 615.6 
L 675.909818 615.237352 
L 677.025818 610.687487 
L 678.040364 606.922536 
L 678.649091 605.482335 
L 679.054909 605.004197 
L 679.359273 604.950365 
L 788.625818 604.889764 
L 789.031636 604.531161 
L 789.538909 603.671526 
L 790.147636 602.153092 
L 792.582545 595.411464 
L 793.089818 594.820876 
L 793.394182 594.72014 
L 970.838182 594.621702 
L 971.041091 594.131455 
L 971.345455 592.680014 
L 971.751273 589.495755 
L 972.36 582.480542 
L 973.476 565.873538 
L 974.490545 552.131465 
L 974.997818 547.542232 
L 975.403636 545.42329 
L 975.606545 544.933043 
L 1245.272727 544.933043 
L 1245.272727 544.933043 
" style="fill:none;stroke:#1f77b4;stroke-linecap:square;stroke-width:1.5;"/>
   </g>
   <g id="line2d_14">
    <path clip-path="url(#pc43c124e72)" d="M 230.727273 480.979682 
L 377.126182 480.881868 
L 377.937818 480.517125 
L 379.155273 479.671197 
L 380.474182 478.838394 
L 381.285818 478.60205 
L 382.503273 478.592629 
L 566.440364 478.5025 
L 567.556364 478.16345 
L 569.991273 477.347338 
L 571.005818 477.296801 
L 674.895273 477.21296 
L 675.706909 476.900323 
L 677.127273 476.048038 
L 678.344727 475.423542 
L 679.156364 475.250756 
L 971.244 475.166582 
L 971.954182 474.830936 
L 972.867273 474.128896 
L 974.693455 472.68121 
L 975.403636 472.414499 
L 976.215273 472.386293 
L 1245.272727 472.386293 
L 1245.272727 472.386293 
" style="fill:none;stroke:#ff7f0e;stroke-linecap:square;stroke-width:1.5;"/>
   </g>
   <g id="line2d_15">
    <path clip-path="url(#pc43c124e72)" d="M 230.727273 480.979682 
L 376.517455 480.979682 
L 377.633455 305.759983 
L 378.242182 240.094188 
L 378.648 214.728564 
L 378.952364 206.634904 
L 379.053818 206.092477 
L 379.155273 206.634904 
L 379.358182 210.961485 
L 379.662545 225.396022 
L 380.068364 258.591261 
L 380.677091 333.687752 
L 381.387273 446.52718 
L 381.590182 480.979682 
L 565.628727 480.979682 
L 566.744727 396.10764 
L 567.353455 364.300771 
L 567.759273 352.014297 
L 568.063636 348.09393 
L 568.165091 347.831192 
L 568.266545 348.09393 
L 568.469455 350.189618 
L 568.773818 357.181347 
L 569.179636 373.260291 
L 569.788364 409.635153 
L 570.498545 464.291751 
L 570.701455 480.979682 
L 674.286545 480.979682 
L 675.402545 426.223526 
L 676.011273 405.702965 
L 676.417091 397.776208 
L 676.721455 395.246939 
L 676.822909 395.07743 
L 676.924364 395.246939 
L 677.127273 396.598995 
L 677.431636 401.109788 
L 677.837455 411.483301 
L 678.446182 434.950954 
L 679.156364 470.213275 
L 679.359273 480.979682 
L 788.422909 480.979682 
L 789.538909 439.912565 
L 790.147636 424.522144 
L 790.553455 418.577076 
L 790.857818 416.680125 
L 790.959273 416.552993 
L 791.060727 416.680125 
L 791.263636 417.694167 
L 791.568 421.077262 
L 791.973818 428.857396 
L 792.582545 446.458136 
L 793.292727 472.904877 
L 793.495636 480.979682 
L 970.736727 480.979682 
L 971.852727 281.119713 
L 972.461455 206.219665 
L 972.867273 177.287 
L 973.171636 168.055169 
L 973.273091 167.436464 
L 973.374545 168.055169 
L 973.577455 172.990176 
L 973.881818 189.45457 
L 974.287636 227.31789 
L 974.896364 312.974824 
L 975.606545 441.682297 
L 975.809455 480.979682 
L 1245.272727 480.979682 
L 1245.272727 480.979682 
" style="fill:none;stroke:#2ca02c;stroke-linecap:square;stroke-width:1.5;"/>
   </g>
   <g id="line2d_16">
    <path clip-path="url(#pc43c124e72)" d="M 230.727273 480.979682 
L 376.517455 480.979682 
L 377.734909 470.688958 
L 378.343636 467.377513 
L 378.749455 466.213062 
L 379.053818 465.946788 
L 379.256727 466.065327 
L 379.561091 466.68255 
L 379.966909 468.28699 
L 380.474182 471.397355 
L 381.285818 478.162799 
L 381.691636 480.979682 
L 565.628727 480.979682 
L 566.846182 475.393289 
L 567.454909 473.595647 
L 567.860727 472.963517 
L 568.165091 472.818968 
L 568.469455 472.963517 
L 568.773818 473.392042 
L 569.179636 474.377526 
L 569.788364 476.606953 
L 570.498545 479.956873 
L 570.701455 480.979682 
L 674.286545 480.979682 
L 675.504 472.159061 
L 676.112727 469.32068 
L 676.518545 468.322579 
L 676.822909 468.094344 
L 677.025818 468.195949 
L 677.330182 468.724998 
L 677.736 470.100231 
L 678.243273 472.766259 
L 679.054909 478.56521 
L 679.460727 480.979682 
L 970.736727 480.979682 
L 971.954182 468.630813 
L 972.562909 464.657079 
L 972.968727 463.259738 
L 973.273091 462.940209 
L 973.476 463.082456 
L 973.780364 463.823124 
L 974.186182 465.748451 
L 974.693455 469.480889 
L 975.505091 477.599422 
L 975.910909 480.979682 
L 1245.272727 480.979682 
L 1245.272727 480.979682 
" style="fill:none;stroke:#d62728;stroke-linecap:square;stroke-width:1.5;"/>
   </g>
   <g id="line2d_17">
    <path clip-path="url(#pc43c124e72)" d="M 230.727273 480.979682 
L 376.517455 480.979682 
L 378.343636 423.443772 
L 379.358182 398.243654 
L 380.068364 385.305349 
L 380.677091 377.865445 
L 381.082909 374.923867 
L 381.387273 373.813753 
L 565.527273 373.813753 
L 565.628727 373.601867 
L 567.454909 394.314795 
L 568.469455 403.386838 
L 569.179636 408.044627 
L 569.788364 410.722993 
L 570.194182 411.781961 
L 570.498545 412.181602 
L 674.286545 412.257881 
L 676.112727 251.157332 
L 677.127273 180.597002 
L 677.837455 144.369747 
L 678.446182 123.538016 
L 678.852 115.301597 
L 679.156364 112.19328 
L 788.321455 112.19328 
L 788.422909 111.6 
L 790.249091 130.011491 
L 791.263636 138.075529 
L 791.973818 142.215787 
L 792.582545 144.596556 
L 793.089818 145.689955 
L 793.394182 145.893097 
L 970.736727 145.960901 
L 972.562909 166.673828 
L 973.577455 175.745871 
L 974.287636 180.403661 
L 974.896364 183.082026 
L 975.302182 184.140994 
L 975.606545 184.540635 
L 1245.272727 184.540635 
L 1245.272727 184.540635 
" style="fill:none;stroke:#9467bd;stroke-linecap:square;stroke-width:1.5;"/>
   </g>
   <g id="patch_3">
    <path d="M 180 640.8 
L 180 86.4 
" style="fill:none;stroke:#000000;stroke-linecap:square;stroke-linejoin:miter;stroke-width:0.8;"/>
   </g>
   <g id="patch_4">
    <path d="M 1296 640.8 
L 1296 86.4 
" style="fill:none;stroke:#000000;stroke-linecap:square;stroke-linejoin:miter;stroke-width:0.8;"/>
   </g>
   <g id="patch_5">
    <path d="M 180 640.8 
L 1296 640.8 
" style="fill:none;stroke:#000000;stroke-linecap:square;stroke-linejoin:miter;stroke-width:0.8;"/>
   </g>
   <g id="patch_6">
    <path d="M 180 86.4 
L 1296 86.4 
" style="fill:none;stroke:#000000;stroke-linecap:square;stroke-linejoin:miter;stroke-width:0.8;"/>
   </g>
  </g>
  <g id="axes_2">
   <g id="matplotlib.axis_3">
    <g id="ytick_7">
     <g id="line2d_18">
      <defs>
       <path d="M 0 0 
L 3.5 0 
" id="m036227aa0b" style="stroke:#000000;stroke-width:0.8;"/>
      </defs>
      <g>
       <use style="stroke:#000000;stroke-width:0.8;" x="1296" xlink:href="#m036227aa0b" y="631.73206"/>
      </g>
     </g>
     <g id="text_15">
      <!-- 0 -->
      <g transform="translate(1303 635.531279)scale(0.1 -0.1)">
       <use xlink:href="#DejaVuSans-30"/>
      </g>
     </g>
    </g>
    <g id="ytick_8">
     <g id="line2d_19">
      <g>
       <use style="stroke:#000000;stroke-width:0.8;" x="1296" xlink:href="#m036227aa0b" y="557.13867"/>
      </g>
     </g>
     <g id="text_16">
      <!-- 25 -->
      <g transform="translate(1303 560.937889)scale(0.1 -0.1)">
       <defs>
        <path d="M 691 4666 
L 3169 4666 
L 3169 4134 
L 1269 4134 
L 1269 2991 
Q 1406 3038 1543 3061 
Q 1681 3084 1819 3084 
Q 2600 3084 3056 2656 
Q 3513 2228 3513 1497 
Q 3513 744 3044 326 
Q 2575 -91 1722 -91 
Q 1428 -91 1123 -41 
Q 819 9 494 109 
L 494 744 
Q 775 591 1075 516 
Q 1375 441 1709 441 
Q 2250 441 2565 725 
Q 2881 1009 2881 1497 
Q 2881 1984 2565 2268 
Q 2250 2553 1709 2553 
Q 1456 2553 1204 2497 
Q 953 2441 691 2322 
L 691 4666 
z
" id="DejaVuSans-35" transform="scale(0.015625)"/>
       </defs>
       <use xlink:href="#DejaVuSans-32"/>
       <use x="63.623047" xlink:href="#DejaVuSans-35"/>
      </g>
     </g>
    </g>
    <g id="ytick_9">
     <g id="line2d_20">
      <g>
       <use style="stroke:#000000;stroke-width:0.8;" x="1296" xlink:href="#m036227aa0b" y="482.54528"/>
      </g>
     </g>
     <g id="text_17">
      <!-- 50 -->
      <g transform="translate(1303 486.344499)scale(0.1 -0.1)">
       <use xlink:href="#DejaVuSans-35"/>
       <use x="63.623047" xlink:href="#DejaVuSans-30"/>
      </g>
     </g>
    </g>
    <g id="ytick_10">
     <g id="line2d_21">
      <g>
       <use style="stroke:#000000;stroke-width:0.8;" x="1296" xlink:href="#m036227aa0b" y="407.95189"/>
      </g>
     </g>
     <g id="text_18">
      <!-- 75 -->
      <g transform="translate(1303 411.751108)scale(0.1 -0.1)">
       <defs>
        <path d="M 525 4666 
L 3525 4666 
L 3525 4397 
L 1831 0 
L 1172 0 
L 2766 4134 
L 525 4134 
L 525 4666 
z
" id="DejaVuSans-37" transform="scale(0.015625)"/>
       </defs>
       <use xlink:href="#DejaVuSans-37"/>
       <use x="63.623047" xlink:href="#DejaVuSans-35"/>
      </g>
     </g>
    </g>
    <g id="ytick_11">
     <g id="line2d_22">
      <g>
       <use style="stroke:#000000;stroke-width:0.8;" x="1296" xlink:href="#m036227aa0b" y="333.358499"/>
      </g>
     </g>
     <g id="text_19">
      <!-- 100 -->
      <g transform="translate(1303 337.157718)scale(0.1 -0.1)">
       <use xlink:href="#DejaVuSans-31"/>
       <use x="63.623047" xlink:href="#DejaVuSans-30"/>
       <use x="127.246094" xlink:href="#DejaVuSans-30"/>
      </g>
     </g>
    </g>
    <g id="ytick_12">
     <g id="line2d_23">
      <g>
       <use style="stroke:#000000;stroke-width:0.8;" x="1296" xlink:href="#m036227aa0b" y="258.765109"/>
      </g>
     </g>
     <g id="text_20">
      <!-- 125 -->
      <g transform="translate(1303 262.564328)scale(0.1 -0.1)">
       <use xlink:href="#DejaVuSans-31"/>
       <use x="63.623047" xlink:href="#DejaVuSans-32"/>
       <use x="127.246094" xlink:href="#DejaVuSans-35"/>
      </g>
     </g>
    </g>
    <g id="ytick_13">
     <g id="line2d_24">
      <g>
       <use style="stroke:#000000;stroke-width:0.8;" x="1296" xlink:href="#m036227aa0b" y="184.171719"/>
      </g>
     </g>
     <g id="text_21">
      <!-- 150 -->
      <g transform="translate(1303 187.970938)scale(0.1 -0.1)">
       <use xlink:href="#DejaVuSans-31"/>
       <use x="63.623047" xlink:href="#DejaVuSans-35"/>
       <use x="127.246094" xlink:href="#DejaVuSans-30"/>
      </g>
     </g>
    </g>
    <g id="ytick_14">
     <g id="line2d_25">
      <g>
       <use style="stroke:#000000;stroke-width:0.8;" x="1296" xlink:href="#m036227aa0b" y="109.578329"/>
      </g>
     </g>
     <g id="text_22">
      <!-- 175 -->
      <g transform="translate(1303 113.377548)scale(0.1 -0.1)">
       <use xlink:href="#DejaVuSans-31"/>
       <use x="63.623047" xlink:href="#DejaVuSans-37"/>
       <use x="127.246094" xlink:href="#DejaVuSans-35"/>
      </g>
     </g>
    </g>
    <g id="text_23">
     <!-- UWB range -->
     <g transform="translate(1333.685938 391.761719)rotate(-90)scale(0.1 -0.1)">
      <defs>
       <path d="M 556 4666 
L 1191 4666 
L 1191 1831 
Q 1191 1081 1462 751 
Q 1734 422 2344 422 
Q 2950 422 3222 751 
Q 3494 1081 3494 1831 
L 3494 4666 
L 4128 4666 
L 4128 1753 
Q 4128 841 3676 375 
Q 3225 -91 2344 -91 
Q 1459 -91 1007 375 
Q 556 841 556 1753 
L 556 4666 
z
" id="DejaVuSans-55" transform="scale(0.015625)"/>
       <path d="M 213 4666 
L 850 4666 
L 1831 722 
L 2809 4666 
L 3519 4666 
L 4500 722 
L 5478 4666 
L 6119 4666 
L 4947 0 
L 4153 0 
L 3169 4050 
L 2175 0 
L 1381 0 
L 213 4666 
z
" id="DejaVuSans-57" transform="scale(0.015625)"/>
       <path d="M 1259 2228 
L 1259 519 
L 2272 519 
Q 2781 519 3026 730 
Q 3272 941 3272 1375 
Q 3272 1813 3026 2020 
Q 2781 2228 2272 2228 
L 1259 2228 
z
M 1259 4147 
L 1259 2741 
L 2194 2741 
Q 2656 2741 2882 2914 
Q 3109 3088 3109 3444 
Q 3109 3797 2882 3972 
Q 2656 4147 2194 4147 
L 1259 4147 
z
M 628 4666 
L 2241 4666 
Q 2963 4666 3353 4366 
Q 3744 4066 3744 3513 
Q 3744 3084 3544 2831 
Q 3344 2578 2956 2516 
Q 3422 2416 3680 2098 
Q 3938 1781 3938 1306 
Q 3938 681 3513 340 
Q 3088 0 2303 0 
L 628 0 
L 628 4666 
z
" id="DejaVuSans-42" transform="scale(0.015625)"/>
       <path d="M 2906 1791 
Q 2906 2416 2648 2759 
Q 2391 3103 1925 3103 
Q 1463 3103 1205 2759 
Q 947 2416 947 1791 
Q 947 1169 1205 825 
Q 1463 481 1925 481 
Q 2391 481 2648 825 
Q 2906 1169 2906 1791 
z
M 3481 434 
Q 3481 -459 3084 -895 
Q 2688 -1331 1869 -1331 
Q 1566 -1331 1297 -1286 
Q 1028 -1241 775 -1147 
L 775 -588 
Q 1028 -725 1275 -790 
Q 1522 -856 1778 -856 
Q 2344 -856 2625 -561 
Q 2906 -266 2906 331 
L 2906 616 
Q 2728 306 2450 153 
Q 2172 0 1784 0 
Q 1141 0 747 490 
Q 353 981 353 1791 
Q 353 2603 747 3093 
Q 1141 3584 1784 3584 
Q 2172 3584 2450 3431 
Q 2728 3278 2906 2969 
L 2906 3500 
L 3481 3500 
L 3481 434 
z
" id="DejaVuSans-67" transform="scale(0.015625)"/>
      </defs>
      <use xlink:href="#DejaVuSans-55"/>
      <use x="73.193359" xlink:href="#DejaVuSans-57"/>
      <use x="172.070312" xlink:href="#DejaVuSans-42"/>
      <use x="240.673828" xlink:href="#DejaVuSans-20"/>
      <use x="272.460938" xlink:href="#DejaVuSans-72"/>
      <use x="313.574219" xlink:href="#DejaVuSans-61"/>
      <use x="374.853516" xlink:href="#DejaVuSans-6e"/>
      <use x="438.232422" xlink:href="#DejaVuSans-67"/>
      <use x="501.708984" xlink:href="#DejaVuSans-65"/>
     </g>
    </g>
   </g>
   <g id="line2d_26">
    <path clip-path="url(#pc43c124e72)" d="M 230.727273 601.894704 
L 379.155273 601.995125 
L 380.677091 602.318284 
L 386.46 604.059806 
L 397.62 607.26986 
L 406.953818 609.727985 
L 414.968727 611.612003 
L 421.969091 613.033148 
L 428.259273 614.087454 
L 434.042182 614.835218 
L 439.520727 615.320513 
L 444.796364 615.56387 
L 449.970545 615.579269 
L 455.144727 615.372884 
L 460.521818 614.93227 
L 466.101818 614.249931 
L 472.087636 613.291963 
L 478.682182 612.006018 
L 485.986909 610.351019 
L 494.407636 608.207602 
L 504.147273 605.492086 
L 515.814545 601.999272 
L 530.018182 597.504789 
L 547.671273 591.675994 
L 568.773818 584.70451 
L 572.223273 584.12778 
L 591.804 580.882134 
L 613.515273 577.053288 
L 637.762909 572.547195 
L 665.257091 567.206497 
L 675.199636 565.12749 
L 676.214182 564.581465 
L 677.634545 563.539687 
L 680.779636 560.871612 
L 685.953818 556.20776 
L 691.736727 550.689076 
L 698.331273 544.077069 
L 705.838909 536.222643 
L 714.462545 526.868764 
L 724.506545 515.636552 
L 736.376727 502.017226 
L 750.580364 485.368862 
L 767.726182 464.916693 
L 792.582545 435.214095 
L 819.873818 407.19541 
L 838.338545 387.786553 
L 859.441091 365.273883 
L 883.688727 339.071418 
L 911.690182 308.47663 
L 944.46 272.332932 
L 972.968727 240.90796 
L 973.983273 240.23563 
L 974.997818 239.85371 
L 977.331273 239.370071 
L 986.868 237.321905 
L 996.506182 235.022707 
L 1006.245818 232.469248 
L 1016.086909 229.658777 
L 1026.029455 226.589029 
L 1036.174909 223.223413 
L 1046.523273 219.553745 
L 1056.973091 215.61189 
L 1067.625818 211.356071 
L 1078.481455 206.780003 
L 1089.641455 201.832012 
L 1101.004364 196.548923 
L 1112.671636 190.876239 
L 1124.541818 184.856741 
L 1136.716364 178.433283 
L 1149.195273 171.597899 
L 1162.08 164.284986 
L 1175.269091 156.543117 
L 1188.864 148.304821 
L 1202.864727 139.56039 
L 1217.372727 130.23518 
L 1232.388 120.316493 
L 1245.272727 111.6 
L 1245.272727 111.6 
" style="fill:none;stroke:#00bfbf;stroke-linecap:square;stroke-width:1.5;"/>
   </g>
   <g id="line2d_27">
    <path clip-path="url(#pc43c124e72)" d="M 230.727273 589.535667 
L 379.459636 589.644855 
L 381.285818 589.985899 
L 392.344364 592.388519 
L 401.881091 594.231017 
L 410.809091 595.732467 
L 419.229818 596.924751 
L 427.244727 597.836223 
L 434.955273 598.49042 
L 442.462909 598.904921 
L 449.869091 599.090461 
L 457.173818 599.052426 
L 464.58 598.790541 
L 472.087636 598.30099 
L 479.798182 597.573566 
L 487.813091 596.591258 
L 496.233818 595.331152 
L 505.161818 593.765536 
L 514.698545 591.863145 
L 525.046909 589.566838 
L 536.308364 586.83594 
L 548.787273 583.576066 
L 562.686545 579.71074 
L 568.165091 578.250936 
L 571.005818 577.831985 
L 589.064727 575.391772 
L 608.341091 572.560273 
L 629.240727 569.262079 
L 651.966545 565.446653 
L 674.692364 561.415559 
L 675.706909 561.029794 
L 677.025818 560.255976 
L 679.562182 558.428643 
L 684.127636 554.869247 
L 689.098909 550.704407 
L 694.577455 545.816797 
L 700.664727 540.079031 
L 707.462182 533.357236 
L 715.071273 525.514366 
L 723.796364 516.192805 
L 733.840364 505.12468 
L 745.406182 492.0394 
L 759.001091 476.312425 
L 775.132364 457.299276 
L 792.075273 437.338767 
L 798.974182 430.437387 
L 813.786545 415.415647 
L 830.425091 398.219423 
L 849.295636 378.388308 
L 870.702545 355.561079 
L 895.254545 329.04629 
L 923.560364 298.141481 
L 956.533091 261.802424 
L 972.765818 243.994718 
L 973.780364 243.27093 
L 974.693455 242.878519 
L 976.012364 242.589056 
L 985.447636 240.725172 
L 994.984364 238.613133 
L 1004.622545 236.249356 
L 1014.362182 233.630734 
L 1024.203273 230.754646 
L 1034.247273 227.585784 
L 1044.392727 224.151043 
L 1054.741091 220.41155 
L 1065.292364 216.359917 
L 1076.046545 211.989422 
L 1087.003636 207.294028 
L 1098.163636 202.268394 
L 1109.526545 196.90788 
L 1121.193818 191.157486 
L 1133.165455 185.007705 
L 1145.441455 178.449953 
L 1158.021818 171.476584 
L 1171.008 164.021668 
L 1184.298545 156.134787 
L 1197.994909 147.748172 
L 1212.198545 138.787567 
L 1226.808 129.306117 
L 1241.924727 119.228479 
L 1245.272727 116.961356 
L 1245.272727 116.961356 
" style="fill:none;stroke:#00bfbf;stroke-linecap:square;stroke-width:1.5;"/>
   </g>
   <g id="patch_7">
    <path d="M 180 640.8 
L 180 86.4 
" style="fill:none;stroke:#000000;stroke-linecap:square;stroke-linejoin:miter;stroke-width:0.8;"/>
   </g>
   <g id="patch_8">
    <path d="M 1296 640.8 
L 1296 86.4 
" style="fill:none;stroke:#000000;stroke-linecap:square;stroke-linejoin:miter;stroke-width:0.8;"/>
   </g>
   <g id="patch_9">
    <path d="M 180 640.8 
L 1296 640.8 
" style="fill:none;stroke:#000000;stroke-linecap:square;stroke-linejoin:miter;stroke-width:0.8;"/>
   </g>
   <g id="patch_10">
    <path d="M 180 86.4 
L 1296 86.4 
" style="fill:none;stroke:#000000;stroke-linecap:square;stroke-linejoin:miter;stroke-width:0.8;"/>
   </g>
  </g>
  <g id="legend_1">
   <g id="patch_11">
    <path d="M 1337.5875 110.746875 
L 1433 110.746875 
Q 1435 110.746875 1435 108.746875 
L 1435 7 
Q 1435 5 1433 5 
L 1337.5875 5 
Q 1335.5875 5 1335.5875 7 
L 1335.5875 108.746875 
Q 1335.5875 110.746875 1337.5875 110.746875 
z
" style="fill:#ffffff;opacity:0.8;stroke:#cccccc;stroke-linejoin:miter;"/>
   </g>
   <g id="line2d_28">
    <path d="M 1339.5875 13.098438 
L 1359.5875 13.098438 
" style="fill:none;stroke:#1f77b4;stroke-linecap:square;stroke-width:1.5;"/>
   </g>
   <g id="line2d_29"/>
   <g id="text_24">
    <!-- Yaw -->
    <g transform="translate(1367.5875 16.598438)scale(0.1 -0.1)">
     <defs>
      <path d="M -13 4666 
L 666 4666 
L 1959 2747 
L 3244 4666 
L 3922 4666 
L 2272 2222 
L 2272 0 
L 1638 0 
L 1638 2222 
L -13 4666 
z
" id="DejaVuSans-59" transform="scale(0.015625)"/>
      <path d="M 269 3500 
L 844 3500 
L 1563 769 
L 2278 3500 
L 2956 3500 
L 3675 769 
L 4391 3500 
L 4966 3500 
L 4050 0 
L 3372 0 
L 2619 2869 
L 1863 0 
L 1184 0 
L 269 3500 
z
" id="DejaVuSans-77" transform="scale(0.015625)"/>
     </defs>
     <use xlink:href="#DejaVuSans-59"/>
     <use x="47.333984" xlink:href="#DejaVuSans-61"/>
     <use x="108.613281" xlink:href="#DejaVuSans-77"/>
    </g>
   </g>
   <g id="line2d_30">
    <path d="M 1339.5875 27.776563 
L 1359.5875 27.776563 
" style="fill:none;stroke:#ff7f0e;stroke-linecap:square;stroke-width:1.5;"/>
   </g>
   <g id="line2d_31"/>
   <g id="text_25">
    <!-- Pitch -->
    <g transform="translate(1367.5875 31.276563)scale(0.1 -0.1)">
     <defs>
      <path d="M 1259 4147 
L 1259 2394 
L 2053 2394 
Q 2494 2394 2734 2622 
Q 2975 2850 2975 3272 
Q 2975 3691 2734 3919 
Q 2494 4147 2053 4147 
L 1259 4147 
z
M 628 4666 
L 2053 4666 
Q 2838 4666 3239 4311 
Q 3641 3956 3641 3272 
Q 3641 2581 3239 2228 
Q 2838 1875 2053 1875 
L 1259 1875 
L 1259 0 
L 628 0 
L 628 4666 
z
" id="DejaVuSans-50" transform="scale(0.015625)"/>
      <path d="M 3122 3366 
L 3122 2828 
Q 2878 2963 2633 3030 
Q 2388 3097 2138 3097 
Q 1578 3097 1268 2742 
Q 959 2388 959 1747 
Q 959 1106 1268 751 
Q 1578 397 2138 397 
Q 2388 397 2633 464 
Q 2878 531 3122 666 
L 3122 134 
Q 2881 22 2623 -34 
Q 2366 -91 2075 -91 
Q 1284 -91 818 406 
Q 353 903 353 1747 
Q 353 2603 823 3093 
Q 1294 3584 2113 3584 
Q 2378 3584 2631 3529 
Q 2884 3475 3122 3366 
z
" id="DejaVuSans-63" transform="scale(0.015625)"/>
      <path d="M 3513 2113 
L 3513 0 
L 2938 0 
L 2938 2094 
Q 2938 2591 2744 2837 
Q 2550 3084 2163 3084 
Q 1697 3084 1428 2787 
Q 1159 2491 1159 1978 
L 1159 0 
L 581 0 
L 581 4863 
L 1159 4863 
L 1159 2956 
Q 1366 3272 1645 3428 
Q 1925 3584 2291 3584 
Q 2894 3584 3203 3211 
Q 3513 2838 3513 2113 
z
" id="DejaVuSans-68" transform="scale(0.015625)"/>
     </defs>
     <use xlink:href="#DejaVuSans-50"/>
     <use x="58.052734" xlink:href="#DejaVuSans-69"/>
     <use x="85.835938" xlink:href="#DejaVuSans-74"/>
     <use x="125.044922" xlink:href="#DejaVuSans-63"/>
     <use x="180.025391" xlink:href="#DejaVuSans-68"/>
    </g>
   </g>
   <g id="line2d_32">
    <path d="M 1339.5875 42.454688 
L 1359.5875 42.454688 
" style="fill:none;stroke:#2ca02c;stroke-linecap:square;stroke-width:1.5;"/>
   </g>
   <g id="line2d_33"/>
   <g id="text_26">
    <!--  Angular Vel  -->
    <g transform="translate(1367.5875 45.954688)scale(0.1 -0.1)">
     <defs>
      <path d="M 2188 4044 
L 1331 1722 
L 3047 1722 
L 2188 4044 
z
M 1831 4666 
L 2547 4666 
L 4325 0 
L 3669 0 
L 3244 1197 
L 1141 1197 
L 716 0 
L 50 0 
L 1831 4666 
z
" id="DejaVuSans-41" transform="scale(0.015625)"/>
      <path d="M 544 1381 
L 544 3500 
L 1119 3500 
L 1119 1403 
Q 1119 906 1312 657 
Q 1506 409 1894 409 
Q 2359 409 2629 706 
Q 2900 1003 2900 1516 
L 2900 3500 
L 3475 3500 
L 3475 0 
L 2900 0 
L 2900 538 
Q 2691 219 2414 64 
Q 2138 -91 1772 -91 
Q 1169 -91 856 284 
Q 544 659 544 1381 
z
M 1991 3584 
L 1991 3584 
z
" id="DejaVuSans-75" transform="scale(0.015625)"/>
     </defs>
     <use xlink:href="#DejaVuSans-20"/>
     <use x="31.787109" xlink:href="#DejaVuSans-41"/>
     <use x="100.195312" xlink:href="#DejaVuSans-6e"/>
     <use x="163.574219" xlink:href="#DejaVuSans-67"/>
     <use x="227.050781" xlink:href="#DejaVuSans-75"/>
     <use x="290.429688" xlink:href="#DejaVuSans-6c"/>
     <use x="318.212891" xlink:href="#DejaVuSans-61"/>
     <use x="379.492188" xlink:href="#DejaVuSans-72"/>
     <use x="420.605469" xlink:href="#DejaVuSans-20"/>
     <use x="452.392578" xlink:href="#DejaVuSans-56"/>
     <use x="513.050781" xlink:href="#DejaVuSans-65"/>
     <use x="574.574219" xlink:href="#DejaVuSans-6c"/>
     <use x="602.357422" xlink:href="#DejaVuSans-20"/>
    </g>
   </g>
   <g id="line2d_34">
    <path d="M 1339.5875 57.132812 
L 1359.5875 57.132812 
" style="fill:none;stroke:#d62728;stroke-linecap:square;stroke-width:1.5;"/>
   </g>
   <g id="line2d_35"/>
   <g id="text_27">
    <!--  Ele Vel  -->
    <g transform="translate(1367.5875 60.632812)scale(0.1 -0.1)">
     <defs>
      <path d="M 628 4666 
L 3578 4666 
L 3578 4134 
L 1259 4134 
L 1259 2753 
L 3481 2753 
L 3481 2222 
L 1259 2222 
L 1259 531 
L 3634 531 
L 3634 0 
L 628 0 
L 628 4666 
z
" id="DejaVuSans-45" transform="scale(0.015625)"/>
     </defs>
     <use xlink:href="#DejaVuSans-20"/>
     <use x="31.787109" xlink:href="#DejaVuSans-45"/>
     <use x="94.970703" xlink:href="#DejaVuSans-6c"/>
     <use x="122.753906" xlink:href="#DejaVuSans-65"/>
     <use x="184.277344" xlink:href="#DejaVuSans-20"/>
     <use x="216.064453" xlink:href="#DejaVuSans-56"/>
     <use x="276.722656" xlink:href="#DejaVuSans-65"/>
     <use x="338.246094" xlink:href="#DejaVuSans-6c"/>
     <use x="366.029297" xlink:href="#DejaVuSans-20"/>
    </g>
   </g>
   <g id="line2d_36">
    <path d="M 1339.5875 71.810938 
L 1359.5875 71.810938 
" style="fill:none;stroke:#9467bd;stroke-linecap:square;stroke-width:1.5;"/>
   </g>
   <g id="line2d_37"/>
   <g id="text_28">
    <!--  Linear Vel  -->
    <g transform="translate(1367.5875 75.310938)scale(0.1 -0.1)">
     <defs>
      <path d="M 628 4666 
L 1259 4666 
L 1259 531 
L 3531 531 
L 3531 0 
L 628 0 
L 628 4666 
z
" id="DejaVuSans-4c" transform="scale(0.015625)"/>
     </defs>
     <use xlink:href="#DejaVuSans-20"/>
     <use x="31.787109" xlink:href="#DejaVuSans-4c"/>
     <use x="87.5" xlink:href="#DejaVuSans-69"/>
     <use x="115.283203" xlink:href="#DejaVuSans-6e"/>
     <use x="178.662109" xlink:href="#DejaVuSans-65"/>
     <use x="240.185547" xlink:href="#DejaVuSans-61"/>
     <use x="301.464844" xlink:href="#DejaVuSans-72"/>
     <use x="342.578125" xlink:href="#DejaVuSans-20"/>
     <use x="374.365234" xlink:href="#DejaVuSans-56"/>
     <use x="435.023438" xlink:href="#DejaVuSans-65"/>
     <use x="496.546875" xlink:href="#DejaVuSans-6c"/>
     <use x="524.330078" xlink:href="#DejaVuSans-20"/>
    </g>
   </g>
   <g id="line2d_38">
    <path d="M 1339.5875 86.489063 
L 1359.5875 86.489063 
" style="fill:none;stroke:#00bfbf;stroke-linecap:square;stroke-width:1.5;"/>
   </g>
   <g id="line2d_39"/>
   <g id="text_29">
    <!--  simUwb0  -->
    <g transform="translate(1367.5875 89.989063)scale(0.1 -0.1)">
     <defs>
      <path d="M 3116 1747 
Q 3116 2381 2855 2742 
Q 2594 3103 2138 3103 
Q 1681 3103 1420 2742 
Q 1159 2381 1159 1747 
Q 1159 1113 1420 752 
Q 1681 391 2138 391 
Q 2594 391 2855 752 
Q 3116 1113 3116 1747 
z
M 1159 2969 
Q 1341 3281 1617 3432 
Q 1894 3584 2278 3584 
Q 2916 3584 3314 3078 
Q 3713 2572 3713 1747 
Q 3713 922 3314 415 
Q 2916 -91 2278 -91 
Q 1894 -91 1617 61 
Q 1341 213 1159 525 
L 1159 0 
L 581 0 
L 581 4863 
L 1159 4863 
L 1159 2969 
z
" id="DejaVuSans-62" transform="scale(0.015625)"/>
     </defs>
     <use xlink:href="#DejaVuSans-20"/>
     <use x="31.787109" xlink:href="#DejaVuSans-73"/>
     <use x="83.886719" xlink:href="#DejaVuSans-69"/>
     <use x="111.669922" xlink:href="#DejaVuSans-6d"/>
     <use x="209.082031" xlink:href="#DejaVuSans-55"/>
     <use x="282.275391" xlink:href="#DejaVuSans-77"/>
     <use x="364.0625" xlink:href="#DejaVuSans-62"/>
     <use x="427.539062" xlink:href="#DejaVuSans-30"/>
     <use x="491.162109" xlink:href="#DejaVuSans-20"/>
    </g>
   </g>
   <g id="line2d_40">
    <path d="M 1339.5875 101.167188 
L 1359.5875 101.167188 
" style="fill:none;stroke:#00bfbf;stroke-linecap:square;stroke-width:1.5;"/>
   </g>
   <g id="line2d_41"/>
   <g id="text_30">
    <!--  simUwb1  -->
    <g transform="translate(1367.5875 104.667188)scale(0.1 -0.1)">
     <use xlink:href="#DejaVuSans-20"/>
     <use x="31.787109" xlink:href="#DejaVuSans-73"/>
     <use x="83.886719" xlink:href="#DejaVuSans-69"/>
     <use x="111.669922" xlink:href="#DejaVuSans-6d"/>
     <use x="209.082031" xlink:href="#DejaVuSans-55"/>
     <use x="282.275391" xlink:href="#DejaVuSans-77"/>
     <use x="364.0625" xlink:href="#DejaVuSans-62"/>
     <use x="427.539062" xlink:href="#DejaVuSans-31"/>
     <use x="491.162109" xlink:href="#DejaVuSans-20"/>
    </g>
   </g>
  </g>
 </g>
 <defs>
  <clipPath id="pc43c124e72">
   <rect height="554.4" width="1116" x="180" y="86.4"/>
  </clipPath>
 </defs>
</svg>
