<?xml version="1.0" encoding="utf-8" standalone="no"?>
<!DOCTYPE svg PUBLIC "-//W3C//DTD SVG 1.1//EN"
  "http://www.w3.org/Graphics/SVG/1.1/DTD/svg11.dtd">
<svg height="360pt" version="1.1" viewBox="0 0 720 360" width="720pt" xmlns="http://www.w3.org/2000/svg" xmlns:xlink="http://www.w3.org/1999/xlink">
 <metadata>
  <rdf:RDF xmlns:cc="http://creativecommons.org/ns#" xmlns:dc="http://purl.org/dc/elements/1.1/" xmlns:rdf="http://www.w3.org/1999/02/22-rdf-syntax-ns#">
   <cc:Work>
    <dc:type rdf:resource="http://purl.org/dc/dcmitype/StillImage"/>
    <dc:date>2021-11-05T21:29:05.358428</dc:date>
    <dc:format>image/svg+xml</dc:format>
    <dc:creator>
     <cc:Agent>
      <dc:title>Matplotlib v3.4.2, https://matplotlib.org/</dc:title>
     </cc:Agent>
    </dc:creator>
   </cc:Work>
  </rdf:RDF>
 </metadata>
 <defs>
  <style type="text/css">*{stroke-linecap:butt;stroke-linejoin:round;}</style>
 </defs>
 <g id="figure_1">
  <g id="patch_1">
   <path d="M 0 360 
L 720 360 
L 720 0 
L 0 0 
z
" style="fill:#ffffff;"/>
  </g>
  <g id="axes_1">
   <g id="patch_2">
    <path d="M 90 320.4 
L 648 320.4 
L 648 43.2 
L 90 43.2 
z
" style="fill:#ffffff;"/>
   </g>
   <g id="matplotlib.axis_1">
    <g id="xtick_1">
     <g id="line2d_1">
      <defs>
       <path d="M 0 0 
L 0 3.5 
" id="m65334aed04" style="stroke:#000000;stroke-width:0.8;"/>
      </defs>
      <g>
       <use style="stroke:#000000;stroke-width:0.8;" x="115.363636" xlink:href="#m65334aed04" y="320.4"/>
      </g>
     </g>
     <g id="text_1">
      <!-- 0 -->
      <g transform="translate(112.182386 334.998438)scale(0.1 -0.1)">
       <defs>
        <path d="M 2034 4250 
Q 1547 4250 1301 3770 
Q 1056 3291 1056 2328 
Q 1056 1369 1301 889 
Q 1547 409 2034 409 
Q 2525 409 2770 889 
Q 3016 1369 3016 2328 
Q 3016 3291 2770 3770 
Q 2525 4250 2034 4250 
z
M 2034 4750 
Q 2819 4750 3233 4129 
Q 3647 3509 3647 2328 
Q 3647 1150 3233 529 
Q 2819 -91 2034 -91 
Q 1250 -91 836 529 
Q 422 1150 422 2328 
Q 422 3509 836 4129 
Q 1250 4750 2034 4750 
z
" id="DejaVuSans-30" transform="scale(0.015625)"/>
       </defs>
       <use xlink:href="#DejaVuSans-30"/>
      </g>
     </g>
    </g>
    <g id="xtick_2">
     <g id="line2d_2">
      <g>
       <use style="stroke:#000000;stroke-width:0.8;" x="216.828328" xlink:href="#m65334aed04" y="320.4"/>
      </g>
     </g>
     <g id="text_2">
      <!-- 2000 -->
      <g transform="translate(204.103328 334.998438)scale(0.1 -0.1)">
       <defs>
        <path d="M 1228 531 
L 3431 531 
L 3431 0 
L 469 0 
L 469 531 
Q 828 903 1448 1529 
Q 2069 2156 2228 2338 
Q 2531 2678 2651 2914 
Q 2772 3150 2772 3378 
Q 2772 3750 2511 3984 
Q 2250 4219 1831 4219 
Q 1534 4219 1204 4116 
Q 875 4013 500 3803 
L 500 4441 
Q 881 4594 1212 4672 
Q 1544 4750 1819 4750 
Q 2544 4750 2975 4387 
Q 3406 4025 3406 3419 
Q 3406 3131 3298 2873 
Q 3191 2616 2906 2266 
Q 2828 2175 2409 1742 
Q 1991 1309 1228 531 
z
" id="DejaVuSans-32" transform="scale(0.015625)"/>
       </defs>
       <use xlink:href="#DejaVuSans-32"/>
       <use x="63.623047" xlink:href="#DejaVuSans-30"/>
       <use x="127.246094" xlink:href="#DejaVuSans-30"/>
       <use x="190.869141" xlink:href="#DejaVuSans-30"/>
      </g>
     </g>
    </g>
    <g id="xtick_3">
     <g id="line2d_3">
      <g>
       <use style="stroke:#000000;stroke-width:0.8;" x="318.29302" xlink:href="#m65334aed04" y="320.4"/>
      </g>
     </g>
     <g id="text_3">
      <!-- 4000 -->
      <g transform="translate(305.56802 334.998438)scale(0.1 -0.1)">
       <defs>
        <path d="M 2419 4116 
L 825 1625 
L 2419 1625 
L 2419 4116 
z
M 2253 4666 
L 3047 4666 
L 3047 1625 
L 3713 1625 
L 3713 1100 
L 3047 1100 
L 3047 0 
L 2419 0 
L 2419 1100 
L 313 1100 
L 313 1709 
L 2253 4666 
z
" id="DejaVuSans-34" transform="scale(0.015625)"/>
       </defs>
       <use xlink:href="#DejaVuSans-34"/>
       <use x="63.623047" xlink:href="#DejaVuSans-30"/>
       <use x="127.246094" xlink:href="#DejaVuSans-30"/>
       <use x="190.869141" xlink:href="#DejaVuSans-30"/>
      </g>
     </g>
    </g>
    <g id="xtick_4">
     <g id="line2d_4">
      <g>
       <use style="stroke:#000000;stroke-width:0.8;" x="419.757712" xlink:href="#m65334aed04" y="320.4"/>
      </g>
     </g>
     <g id="text_4">
      <!-- 6000 -->
      <g transform="translate(407.032712 334.998438)scale(0.1 -0.1)">
       <defs>
        <path d="M 2113 2584 
Q 1688 2584 1439 2293 
Q 1191 2003 1191 1497 
Q 1191 994 1439 701 
Q 1688 409 2113 409 
Q 2538 409 2786 701 
Q 3034 994 3034 1497 
Q 3034 2003 2786 2293 
Q 2538 2584 2113 2584 
z
M 3366 4563 
L 3366 3988 
Q 3128 4100 2886 4159 
Q 2644 4219 2406 4219 
Q 1781 4219 1451 3797 
Q 1122 3375 1075 2522 
Q 1259 2794 1537 2939 
Q 1816 3084 2150 3084 
Q 2853 3084 3261 2657 
Q 3669 2231 3669 1497 
Q 3669 778 3244 343 
Q 2819 -91 2113 -91 
Q 1303 -91 875 529 
Q 447 1150 447 2328 
Q 447 3434 972 4092 
Q 1497 4750 2381 4750 
Q 2619 4750 2861 4703 
Q 3103 4656 3366 4563 
z
" id="DejaVuSans-36" transform="scale(0.015625)"/>
       </defs>
       <use xlink:href="#DejaVuSans-36"/>
       <use x="63.623047" xlink:href="#DejaVuSans-30"/>
       <use x="127.246094" xlink:href="#DejaVuSans-30"/>
       <use x="190.869141" xlink:href="#DejaVuSans-30"/>
      </g>
     </g>
    </g>
    <g id="xtick_5">
     <g id="line2d_5">
      <g>
       <use style="stroke:#000000;stroke-width:0.8;" x="521.222404" xlink:href="#m65334aed04" y="320.4"/>
      </g>
     </g>
     <g id="text_5">
      <!-- 8000 -->
      <g transform="translate(508.497404 334.998438)scale(0.1 -0.1)">
       <defs>
        <path d="M 2034 2216 
Q 1584 2216 1326 1975 
Q 1069 1734 1069 1313 
Q 1069 891 1326 650 
Q 1584 409 2034 409 
Q 2484 409 2743 651 
Q 3003 894 3003 1313 
Q 3003 1734 2745 1975 
Q 2488 2216 2034 2216 
z
M 1403 2484 
Q 997 2584 770 2862 
Q 544 3141 544 3541 
Q 544 4100 942 4425 
Q 1341 4750 2034 4750 
Q 2731 4750 3128 4425 
Q 3525 4100 3525 3541 
Q 3525 3141 3298 2862 
Q 3072 2584 2669 2484 
Q 3125 2378 3379 2068 
Q 3634 1759 3634 1313 
Q 3634 634 3220 271 
Q 2806 -91 2034 -91 
Q 1263 -91 848 271 
Q 434 634 434 1313 
Q 434 1759 690 2068 
Q 947 2378 1403 2484 
z
M 1172 3481 
Q 1172 3119 1398 2916 
Q 1625 2713 2034 2713 
Q 2441 2713 2670 2916 
Q 2900 3119 2900 3481 
Q 2900 3844 2670 4047 
Q 2441 4250 2034 4250 
Q 1625 4250 1398 4047 
Q 1172 3844 1172 3481 
z
" id="DejaVuSans-38" transform="scale(0.015625)"/>
       </defs>
       <use xlink:href="#DejaVuSans-38"/>
       <use x="63.623047" xlink:href="#DejaVuSans-30"/>
       <use x="127.246094" xlink:href="#DejaVuSans-30"/>
       <use x="190.869141" xlink:href="#DejaVuSans-30"/>
      </g>
     </g>
    </g>
    <g id="xtick_6">
     <g id="line2d_6">
      <g>
       <use style="stroke:#000000;stroke-width:0.8;" x="622.687096" xlink:href="#m65334aed04" y="320.4"/>
      </g>
     </g>
     <g id="text_6">
      <!-- 10000 -->
      <g transform="translate(606.780846 334.998438)scale(0.1 -0.1)">
       <defs>
        <path d="M 794 531 
L 1825 531 
L 1825 4091 
L 703 3866 
L 703 4441 
L 1819 4666 
L 2450 4666 
L 2450 531 
L 3481 531 
L 3481 0 
L 794 0 
L 794 531 
z
" id="DejaVuSans-31" transform="scale(0.015625)"/>
       </defs>
       <use xlink:href="#DejaVuSans-31"/>
       <use x="63.623047" xlink:href="#DejaVuSans-30"/>
       <use x="127.246094" xlink:href="#DejaVuSans-30"/>
       <use x="190.869141" xlink:href="#DejaVuSans-30"/>
       <use x="254.492188" xlink:href="#DejaVuSans-30"/>
      </g>
     </g>
    </g>
    <g id="text_7">
     <!-- Time (steps) -->
     <g transform="translate(337.855469 348.676562)scale(0.1 -0.1)">
      <defs>
       <path d="M -19 4666 
L 3928 4666 
L 3928 4134 
L 2272 4134 
L 2272 0 
L 1638 0 
L 1638 4134 
L -19 4134 
L -19 4666 
z
" id="DejaVuSans-54" transform="scale(0.015625)"/>
       <path d="M 603 3500 
L 1178 3500 
L 1178 0 
L 603 0 
L 603 3500 
z
M 603 4863 
L 1178 4863 
L 1178 4134 
L 603 4134 
L 603 4863 
z
" id="DejaVuSans-69" transform="scale(0.015625)"/>
       <path d="M 3328 2828 
Q 3544 3216 3844 3400 
Q 4144 3584 4550 3584 
Q 5097 3584 5394 3201 
Q 5691 2819 5691 2113 
L 5691 0 
L 5113 0 
L 5113 2094 
Q 5113 2597 4934 2840 
Q 4756 3084 4391 3084 
Q 3944 3084 3684 2787 
Q 3425 2491 3425 1978 
L 3425 0 
L 2847 0 
L 2847 2094 
Q 2847 2600 2669 2842 
Q 2491 3084 2119 3084 
Q 1678 3084 1418 2786 
Q 1159 2488 1159 1978 
L 1159 0 
L 581 0 
L 581 3500 
L 1159 3500 
L 1159 2956 
Q 1356 3278 1631 3431 
Q 1906 3584 2284 3584 
Q 2666 3584 2933 3390 
Q 3200 3197 3328 2828 
z
" id="DejaVuSans-6d" transform="scale(0.015625)"/>
       <path d="M 3597 1894 
L 3597 1613 
L 953 1613 
Q 991 1019 1311 708 
Q 1631 397 2203 397 
Q 2534 397 2845 478 
Q 3156 559 3463 722 
L 3463 178 
Q 3153 47 2828 -22 
Q 2503 -91 2169 -91 
Q 1331 -91 842 396 
Q 353 884 353 1716 
Q 353 2575 817 3079 
Q 1281 3584 2069 3584 
Q 2775 3584 3186 3129 
Q 3597 2675 3597 1894 
z
M 3022 2063 
Q 3016 2534 2758 2815 
Q 2500 3097 2075 3097 
Q 1594 3097 1305 2825 
Q 1016 2553 972 2059 
L 3022 2063 
z
" id="DejaVuSans-65" transform="scale(0.015625)"/>
       <path id="DejaVuSans-20" transform="scale(0.015625)"/>
       <path d="M 1984 4856 
Q 1566 4138 1362 3434 
Q 1159 2731 1159 2009 
Q 1159 1288 1364 580 
Q 1569 -128 1984 -844 
L 1484 -844 
Q 1016 -109 783 600 
Q 550 1309 550 2009 
Q 550 2706 781 3412 
Q 1013 4119 1484 4856 
L 1984 4856 
z
" id="DejaVuSans-28" transform="scale(0.015625)"/>
       <path d="M 2834 3397 
L 2834 2853 
Q 2591 2978 2328 3040 
Q 2066 3103 1784 3103 
Q 1356 3103 1142 2972 
Q 928 2841 928 2578 
Q 928 2378 1081 2264 
Q 1234 2150 1697 2047 
L 1894 2003 
Q 2506 1872 2764 1633 
Q 3022 1394 3022 966 
Q 3022 478 2636 193 
Q 2250 -91 1575 -91 
Q 1294 -91 989 -36 
Q 684 19 347 128 
L 347 722 
Q 666 556 975 473 
Q 1284 391 1588 391 
Q 1994 391 2212 530 
Q 2431 669 2431 922 
Q 2431 1156 2273 1281 
Q 2116 1406 1581 1522 
L 1381 1569 
Q 847 1681 609 1914 
Q 372 2147 372 2553 
Q 372 3047 722 3315 
Q 1072 3584 1716 3584 
Q 2034 3584 2315 3537 
Q 2597 3491 2834 3397 
z
" id="DejaVuSans-73" transform="scale(0.015625)"/>
       <path d="M 1172 4494 
L 1172 3500 
L 2356 3500 
L 2356 3053 
L 1172 3053 
L 1172 1153 
Q 1172 725 1289 603 
Q 1406 481 1766 481 
L 2356 481 
L 2356 0 
L 1766 0 
Q 1100 0 847 248 
Q 594 497 594 1153 
L 594 3053 
L 172 3053 
L 172 3500 
L 594 3500 
L 594 4494 
L 1172 4494 
z
" id="DejaVuSans-74" transform="scale(0.015625)"/>
       <path d="M 1159 525 
L 1159 -1331 
L 581 -1331 
L 581 3500 
L 1159 3500 
L 1159 2969 
Q 1341 3281 1617 3432 
Q 1894 3584 2278 3584 
Q 2916 3584 3314 3078 
Q 3713 2572 3713 1747 
Q 3713 922 3314 415 
Q 2916 -91 2278 -91 
Q 1894 -91 1617 61 
Q 1341 213 1159 525 
z
M 3116 1747 
Q 3116 2381 2855 2742 
Q 2594 3103 2138 3103 
Q 1681 3103 1420 2742 
Q 1159 2381 1159 1747 
Q 1159 1113 1420 752 
Q 1681 391 2138 391 
Q 2594 391 2855 752 
Q 3116 1113 3116 1747 
z
" id="DejaVuSans-70" transform="scale(0.015625)"/>
       <path d="M 513 4856 
L 1013 4856 
Q 1481 4119 1714 3412 
Q 1947 2706 1947 2009 
Q 1947 1309 1714 600 
Q 1481 -109 1013 -844 
L 513 -844 
Q 928 -128 1133 580 
Q 1338 1288 1338 2009 
Q 1338 2731 1133 3434 
Q 928 4138 513 4856 
z
" id="DejaVuSans-29" transform="scale(0.015625)"/>
      </defs>
      <use xlink:href="#DejaVuSans-54"/>
      <use x="57.958984" xlink:href="#DejaVuSans-69"/>
      <use x="85.742188" xlink:href="#DejaVuSans-6d"/>
      <use x="183.154297" xlink:href="#DejaVuSans-65"/>
      <use x="244.677734" xlink:href="#DejaVuSans-20"/>
      <use x="276.464844" xlink:href="#DejaVuSans-28"/>
      <use x="315.478516" xlink:href="#DejaVuSans-73"/>
      <use x="367.578125" xlink:href="#DejaVuSans-74"/>
      <use x="406.787109" xlink:href="#DejaVuSans-65"/>
      <use x="468.310547" xlink:href="#DejaVuSans-70"/>
      <use x="531.787109" xlink:href="#DejaVuSans-73"/>
      <use x="583.886719" xlink:href="#DejaVuSans-29"/>
     </g>
    </g>
   </g>
   <g id="matplotlib.axis_2">
    <g id="ytick_1">
     <g id="line2d_7">
      <defs>
       <path d="M 0 0 
L -3.5 0 
" id="m4544acb428" style="stroke:#000000;stroke-width:0.8;"/>
      </defs>
      <g>
       <use style="stroke:#000000;stroke-width:0.8;" x="90" xlink:href="#m4544acb428" y="307.8"/>
      </g>
     </g>
     <g id="text_8">
      <!-- 0 -->
      <g transform="translate(76.6375 311.599219)scale(0.1 -0.1)">
       <use xlink:href="#DejaVuSans-30"/>
      </g>
     </g>
    </g>
    <g id="ytick_2">
     <g id="line2d_8">
      <g>
       <use style="stroke:#000000;stroke-width:0.8;" x="90" xlink:href="#m4544acb428" y="272.462673"/>
      </g>
     </g>
     <g id="text_9">
      <!-- 20 -->
      <g transform="translate(70.275 276.261892)scale(0.1 -0.1)">
       <use xlink:href="#DejaVuSans-32"/>
       <use x="63.623047" xlink:href="#DejaVuSans-30"/>
      </g>
     </g>
    </g>
    <g id="ytick_3">
     <g id="line2d_9">
      <g>
       <use style="stroke:#000000;stroke-width:0.8;" x="90" xlink:href="#m4544acb428" y="237.125347"/>
      </g>
     </g>
     <g id="text_10">
      <!-- 40 -->
      <g transform="translate(70.275 240.924565)scale(0.1 -0.1)">
       <use xlink:href="#DejaVuSans-34"/>
       <use x="63.623047" xlink:href="#DejaVuSans-30"/>
      </g>
     </g>
    </g>
    <g id="ytick_4">
     <g id="line2d_10">
      <g>
       <use style="stroke:#000000;stroke-width:0.8;" x="90" xlink:href="#m4544acb428" y="201.78802"/>
      </g>
     </g>
     <g id="text_11">
      <!-- 60 -->
      <g transform="translate(70.275 205.587239)scale(0.1 -0.1)">
       <use xlink:href="#DejaVuSans-36"/>
       <use x="63.623047" xlink:href="#DejaVuSans-30"/>
      </g>
     </g>
    </g>
    <g id="ytick_5">
     <g id="line2d_11">
      <g>
       <use style="stroke:#000000;stroke-width:0.8;" x="90" xlink:href="#m4544acb428" y="166.450693"/>
      </g>
     </g>
     <g id="text_12">
      <!-- 80 -->
      <g transform="translate(70.275 170.249912)scale(0.1 -0.1)">
       <use xlink:href="#DejaVuSans-38"/>
       <use x="63.623047" xlink:href="#DejaVuSans-30"/>
      </g>
     </g>
    </g>
    <g id="ytick_6">
     <g id="line2d_12">
      <g>
       <use style="stroke:#000000;stroke-width:0.8;" x="90" xlink:href="#m4544acb428" y="131.113366"/>
      </g>
     </g>
     <g id="text_13">
      <!-- 100 -->
      <g transform="translate(63.9125 134.912585)scale(0.1 -0.1)">
       <use xlink:href="#DejaVuSans-31"/>
       <use x="63.623047" xlink:href="#DejaVuSans-30"/>
       <use x="127.246094" xlink:href="#DejaVuSans-30"/>
      </g>
     </g>
    </g>
    <g id="ytick_7">
     <g id="line2d_13">
      <g>
       <use style="stroke:#000000;stroke-width:0.8;" x="90" xlink:href="#m4544acb428" y="95.77604"/>
      </g>
     </g>
     <g id="text_14">
      <!-- 120 -->
      <g transform="translate(63.9125 99.575258)scale(0.1 -0.1)">
       <use xlink:href="#DejaVuSans-31"/>
       <use x="63.623047" xlink:href="#DejaVuSans-32"/>
       <use x="127.246094" xlink:href="#DejaVuSans-30"/>
      </g>
     </g>
    </g>
    <g id="ytick_8">
     <g id="line2d_14">
      <g>
       <use style="stroke:#000000;stroke-width:0.8;" x="90" xlink:href="#m4544acb428" y="60.438713"/>
      </g>
     </g>
     <g id="text_15">
      <!-- 140 -->
      <g transform="translate(63.9125 64.237932)scale(0.1 -0.1)">
       <use xlink:href="#DejaVuSans-31"/>
       <use x="63.623047" xlink:href="#DejaVuSans-34"/>
       <use x="127.246094" xlink:href="#DejaVuSans-30"/>
      </g>
     </g>
    </g>
    <g id="text_16">
     <!-- RMSE(m) -->
     <g transform="translate(57.832812 204.69375)rotate(-90)scale(0.1 -0.1)">
      <defs>
       <path d="M 2841 2188 
Q 3044 2119 3236 1894 
Q 3428 1669 3622 1275 
L 4263 0 
L 3584 0 
L 2988 1197 
Q 2756 1666 2539 1819 
Q 2322 1972 1947 1972 
L 1259 1972 
L 1259 0 
L 628 0 
L 628 4666 
L 2053 4666 
Q 2853 4666 3247 4331 
Q 3641 3997 3641 3322 
Q 3641 2881 3436 2590 
Q 3231 2300 2841 2188 
z
M 1259 4147 
L 1259 2491 
L 2053 2491 
Q 2509 2491 2742 2702 
Q 2975 2913 2975 3322 
Q 2975 3731 2742 3939 
Q 2509 4147 2053 4147 
L 1259 4147 
z
" id="DejaVuSans-52" transform="scale(0.015625)"/>
       <path d="M 628 4666 
L 1569 4666 
L 2759 1491 
L 3956 4666 
L 4897 4666 
L 4897 0 
L 4281 0 
L 4281 4097 
L 3078 897 
L 2444 897 
L 1241 4097 
L 1241 0 
L 628 0 
L 628 4666 
z
" id="DejaVuSans-4d" transform="scale(0.015625)"/>
       <path d="M 3425 4513 
L 3425 3897 
Q 3066 4069 2747 4153 
Q 2428 4238 2131 4238 
Q 1616 4238 1336 4038 
Q 1056 3838 1056 3469 
Q 1056 3159 1242 3001 
Q 1428 2844 1947 2747 
L 2328 2669 
Q 3034 2534 3370 2195 
Q 3706 1856 3706 1288 
Q 3706 609 3251 259 
Q 2797 -91 1919 -91 
Q 1588 -91 1214 -16 
Q 841 59 441 206 
L 441 856 
Q 825 641 1194 531 
Q 1563 422 1919 422 
Q 2459 422 2753 634 
Q 3047 847 3047 1241 
Q 3047 1584 2836 1778 
Q 2625 1972 2144 2069 
L 1759 2144 
Q 1053 2284 737 2584 
Q 422 2884 422 3419 
Q 422 4038 858 4394 
Q 1294 4750 2059 4750 
Q 2388 4750 2728 4690 
Q 3069 4631 3425 4513 
z
" id="DejaVuSans-53" transform="scale(0.015625)"/>
       <path d="M 628 4666 
L 3578 4666 
L 3578 4134 
L 1259 4134 
L 1259 2753 
L 3481 2753 
L 3481 2222 
L 1259 2222 
L 1259 531 
L 3634 531 
L 3634 0 
L 628 0 
L 628 4666 
z
" id="DejaVuSans-45" transform="scale(0.015625)"/>
      </defs>
      <use xlink:href="#DejaVuSans-52"/>
      <use x="69.482422" xlink:href="#DejaVuSans-4d"/>
      <use x="155.761719" xlink:href="#DejaVuSans-53"/>
      <use x="219.238281" xlink:href="#DejaVuSans-45"/>
      <use x="282.421875" xlink:href="#DejaVuSans-28"/>
      <use x="321.435547" xlink:href="#DejaVuSans-6d"/>
      <use x="418.847656" xlink:href="#DejaVuSans-29"/>
     </g>
    </g>
   </g>
   <g id="line2d_15">
    <path clip-path="url(#pf27e7b98b0)" d="M 115.363636 307.8 
L 115.617298 307.68365 
L 115.66803 307.734696 
L 115.718763 307.67298 
L 115.820227 307.734111 
L 116.226086 307.776975 
L 116.378283 307.684109 
L 116.581213 307.774492 
L 116.73341 307.62729 
L 116.987071 307.714251 
L 117.190001 307.643242 
L 117.39293 307.735915 
L 117.545127 307.792929 
L 117.697324 307.675975 
L 117.748057 307.76231 
L 117.798789 307.616489 
L 117.849521 307.673427 
L 118.103183 307.754506 
L 118.153915 307.625391 
L 118.204648 307.723044 
L 118.458309 307.743174 
L 118.509042 307.5918 
L 118.559774 307.652421 
L 118.965633 307.724397 
L 119.11783 307.754467 
L 119.168562 307.512075 
L 119.219295 307.628095 
L 119.472956 307.75257 
L 119.523689 307.617596 
L 119.574421 307.682393 
L 119.828083 307.74681 
L 119.98028 307.72449 
L 120.132477 307.746506 
L 120.284674 307.624466 
L 120.335406 307.745624 
L 120.386139 307.627322 
L 120.741265 307.695173 
L 120.791997 307.573928 
L 120.84273 307.642225 
L 121.045659 307.716578 
L 121.147124 307.761496 
L 121.197856 307.587265 
L 121.248588 307.744642 
L 121.451518 307.608797 
L 121.603715 307.779191 
L 121.857377 307.666771 
L 121.908109 307.550463 
L 121.958841 307.739493 
L 122.060306 307.703074 
L 122.516897 307.726833 
L 122.618362 307.703062 
L 122.669094 307.763554 
L 122.719827 307.641981 
L 122.770559 307.765798 
L 122.821291 307.78276 
L 122.922756 307.655049 
L 122.973488 307.707435 
L 123.176418 307.629137 
L 123.328615 307.754145 
L 124.292529 307.745878 
L 124.343262 307.644056 
L 124.393994 307.694966 
L 124.546191 307.758814 
L 124.647656 307.703409 
L 124.74912 307.784178 
L 124.901317 307.56713 
L 124.95205 307.62485 
L 125.357909 307.735652 
L 125.459373 307.687001 
L 125.61157 307.753569 
L 125.662303 307.652129 
L 125.713035 307.707113 
L 125.763767 307.768112 
L 125.8145 307.631069 
L 125.915964 307.670907 
L 126.118894 307.764161 
L 126.321823 307.715961 
L 126.47402 307.757972 
L 126.930611 307.663619 
L 127.082808 307.771214 
L 127.133541 307.706247 
L 127.184273 307.78019 
L 127.539399 307.70281 
L 127.590132 307.780237 
L 127.640864 307.689207 
L 127.691596 307.644296 
L 127.742329 307.724677 
L 128.046723 307.687336 
L 128.148188 307.75933 
L 128.19892 307.655789 
L 128.249652 307.717109 
L 128.351117 307.750827 
L 128.503314 307.691108 
L 128.706243 307.711135 
L 129.771623 307.65047 
L 129.92382 307.733471 
L 130.025284 307.649911 
L 130.076017 307.609019 
L 130.126749 307.690208 
L 130.481875 307.787514 
L 130.684805 307.665567 
L 130.735537 307.73629 
L 130.938467 307.73257 
L 131.496522 307.741423 
L 131.648719 307.766065 
L 131.699452 307.621852 
L 131.750184 307.676489 
L 131.902381 307.752355 
L 132.003846 307.563566 
L 132.054578 307.70481 
L 132.206775 307.745454 
L 132.511169 307.726654 
L 132.612634 307.63344 
L 132.714099 307.789844 
L 132.764831 307.765883 
L 132.815563 307.644674 
L 132.866296 307.728382 
L 132.917028 307.772518 
L 132.96776 307.697278 
L 133.018493 307.666101 
L 133.069225 307.759549 
L 133.221422 307.750264 
L 133.322887 307.562344 
L 133.475084 307.781432 
L 133.576549 307.669733 
L 133.728746 307.782805 
L 133.779478 307.775592 
L 133.880943 307.591796 
L 134.03314 307.734148 
L 134.438998 307.624953 
L 134.489731 307.504197 
L 134.540463 307.617942 
L 134.641928 307.748182 
L 134.743393 307.723656 
L 134.844857 307.757139 
L 134.946322 307.61092 
L 135.047787 307.755287 
L 135.199984 307.684738 
L 135.352181 307.545921 
L 135.504378 307.674985 
L 136.062434 307.759116 
L 136.113166 307.795079 
L 136.214631 307.643499 
L 136.265363 307.764449 
L 136.316095 307.694587 
L 136.468292 307.68302 
L 136.569757 307.773683 
L 136.620489 307.677285 
L 136.671222 307.739508 
L 137.127813 307.768537 
L 137.28001 307.795811 
L 137.381475 307.691755 
L 137.584404 307.771049 
L 138.14246 307.662437 
L 138.193192 307.779891 
L 138.243924 307.721084 
L 138.396121 307.690089 
L 138.446854 307.501769 
L 138.497586 307.715749 
L 141.38933 307.707557 
L 141.490795 307.478513 
L 141.592259 307.751429 
L 141.642992 307.720322 
L 141.693724 307.52593 
L 141.744456 307.685826 
L 143.520088 307.772976 
L 143.672285 307.694929 
L 143.875215 307.741651 
L 143.925947 307.562023 
L 143.976679 307.747744 
L 144.078144 307.674348 
L 144.281074 307.791903 
L 144.585468 307.742677 
L 144.686932 307.681743 
L 144.839129 307.765025 
L 145.042059 307.672183 
L 145.346453 307.780251 
L 145.49865 307.684927 
L 145.853776 307.74704 
L 145.955241 307.613248 
L 146.005973 307.746398 
L 146.056706 307.726342 
L 146.107438 307.67914 
L 146.15817 307.773947 
L 146.564029 307.664998 
L 146.665494 307.767079 
L 146.969888 307.668968 
L 147.02062 307.775692 
L 147.071353 307.666954 
L 147.172817 307.665361 
L 147.426479 307.702555 
L 147.477211 307.595893 
L 147.527944 307.711356 
L 147.730873 307.704039 
L 147.933802 307.792084 
L 148.035267 307.613934 
L 148.187464 307.787789 
L 148.238197 307.783904 
L 148.288929 307.65569 
L 148.339661 307.70612 
L 148.74552 307.776115 
L 148.796252 307.677502 
L 148.846985 307.789547 
L 149.151379 307.686335 
L 149.202111 307.75569 
L 149.252843 307.638666 
L 149.506505 307.729446 
L 149.658702 307.733991 
L 149.861632 307.752129 
L 150.166026 307.688158 
L 150.216758 307.760604 
L 150.26749 307.61087 
L 150.318223 307.696318 
L 150.368955 307.728483 
L 150.47042 307.622354 
L 150.622617 307.760022 
L 150.774814 307.644489 
L 150.825546 307.711415 
L 150.876279 307.587708 
L 150.927011 307.76527 
L 150.977743 307.689569 
L 151.028476 307.601156 
L 151.079208 307.630973 
L 151.180673 307.787489 
L 151.231405 307.718851 
L 151.282137 307.782159 
L 151.33287 307.791078 
L 151.383602 307.684162 
L 151.434334 307.74437 
L 151.535799 307.757728 
L 151.586531 307.678161 
L 151.637264 307.75912 
L 151.789461 307.759394 
L 151.890925 307.640053 
L 151.99239 307.778752 
L 152.043122 307.756526 
L 152.246052 307.72106 
L 152.347517 307.692132 
L 152.448981 307.763818 
L 152.499714 307.619196 
L 152.550446 307.772576 
L 153.260699 307.719 
L 153.463628 307.775079 
L 153.666558 307.703861 
L 153.768022 307.76117 
L 153.920219 307.737381 
L 154.123149 307.649737 
L 154.173881 307.775019 
L 154.224613 307.628543 
L 154.275346 307.545321 
L 154.427543 307.767548 
L 154.884134 307.666627 
L 155.036331 307.765861 
L 155.188528 307.547129 
L 155.23926 307.668876 
L 155.289993 307.508249 
L 155.492922 307.758164 
L 155.543654 307.589613 
L 155.594387 307.684189 
L 155.848048 307.732891 
L 155.898781 307.610279 
L 155.949513 307.744017 
L 156.000245 307.778489 
L 156.050978 307.685272 
L 156.152443 307.612092 
L 156.203175 307.494491 
L 156.30464 305.669623 
L 156.355372 307.236328 
L 156.456837 307.091369 
L 156.659766 307.130474 
L 157.116357 307.138446 
L 159.247116 307.156266 
L 159.450045 307.199858 
L 162.443253 307.22655 
L 162.747647 307.17858 
L 162.849112 307.215974 
L 163.254971 307.239696 
L 163.407168 307.236897 
L 163.762294 307.256522 
L 165.740856 307.263533 
L 166.806235 307.271774 
L 168.531135 307.255087 
L 168.784797 307.28729 
L 172.691187 307.256078 
L 172.894117 307.253292 
L 175.227805 307.319352 
L 175.329269 307.452672 
L 175.380002 307.340088 
L 175.532199 307.324495 
L 175.78586 307.281296 
L 176.343916 307.313816 
L 178.880534 307.378675 
L 178.931266 307.4287 
L 178.981998 307.342093 
L 179.387857 307.372224 
L 179.742983 307.180737 
L 179.793716 306.864455 
L 179.844448 306.979923 
L 179.996645 307.649855 
L 180.250307 307.551799 
L 180.301039 307.594805 
L 180.453236 307.456493 
L 180.656166 307.46579 
L 182.431798 307.396863 
L 182.583995 307.463683 
L 182.989854 307.477201 
L 184.917683 307.440289 
L 185.577203 307.444263 
L 186.236724 307.406603 
L 186.946977 307.454152 
L 187.352835 307.437562 
L 187.758694 307.449397 
L 187.910891 307.43374 
L 188.266018 307.436709 
L 188.418215 307.42779 
L 188.722609 307.575828 
L 188.824073 307.230879 
L 188.874806 307.254901 
L 189.077735 307.386609 
L 189.382129 307.434696 
L 189.432861 307.205443 
L 189.483594 307.667675 
L 189.534326 307.092128 
L 189.585059 307.324819 
L 189.737256 307.707844 
L 189.787988 307.580734 
L 189.83872 307.608768 
L 189.940185 307.77167 
L 189.990917 307.735586 
L 190.04165 307.751819 
L 190.092382 307.629347 
L 190.143114 307.694181 
L 190.295311 307.746874 
L 190.498241 307.575896 
L 190.548973 307.657501 
L 190.650438 307.738963 
L 190.70117 307.570537 
L 190.751902 307.765761 
L 191.208494 307.696894 
L 191.259226 307.752003 
L 191.309958 307.692719 
L 191.360691 307.658827 
L 191.411423 307.764461 
L 191.462155 307.733618 
L 191.614352 307.648435 
L 191.817282 307.719722 
L 192.070943 307.650703 
L 192.121676 307.632012 
L 192.172408 307.452128 
L 192.22314 307.519933 
L 192.375338 307.652737 
L 192.476802 307.610725 
L 192.578267 307.488399 
L 192.730464 307.618954 
L 192.882661 307.421101 
L 192.933393 307.472716 
L 194.303167 307.454019 
L 194.556828 306.705915 
L 194.607561 306.777337 
L 194.81049 306.972173 
L 195.064152 306.993824 
L 195.114884 306.843349 
L 195.165617 307.054487 
L 195.216349 307.033317 
L 195.317814 306.971609 
L 195.470011 306.911925 
L 195.825137 306.930262 
L 195.977334 306.777293 
L 196.028066 306.897627 
L 196.078799 306.836737 
L 196.484658 306.752615 
L 196.636855 306.781 
L 197.803699 306.598847 
L 197.905163 306.642657 
L 198.108093 306.585887 
L 198.26029 306.523573 
L 198.412487 306.457662 
L 199.325669 306.408684 
L 200.188119 306.307023 
L 201.608624 306.208302 
L 207.848703 305.727353 
L 207.950168 305.801574 
L 208.102365 305.715473 
L 209.573603 305.54618 
L 209.7258 305.630616 
L 209.776532 305.687193 
L 209.827265 306.005137 
L 209.877997 305.813755 
L 210.030194 305.652237 
L 210.740447 305.621662 
L 211.24777 305.628541 
L 211.907291 305.670218 
L 211.958023 305.77103 
L 212.059488 305.486985 
L 212.11022 305.507975 
L 212.262417 305.473372 
L 212.465347 305.46291 
L 214.443908 305.462091 
L 214.646837 305.419521 
L 214.951231 305.368627 
L 215.661484 305.404435 
L 216.879061 305.308631 
L 217.031258 305.029771 
L 217.183455 305.16268 
L 217.335652 305.206965 
L 217.538581 305.133795 
L 217.741511 305.159161 
L 217.94444 305.799447 
L 217.995172 306.137224 
L 218.045905 305.862994 
L 218.096637 305.903199 
L 218.147369 305.801827 
L 218.299566 305.693765 
L 218.908354 305.712927 
L 219.009819 305.755471 
L 219.162016 305.673932 
L 219.66934 305.753471 
L 219.821537 305.697494 
L 220.430325 305.704757 
L 221.039113 305.722524 
L 221.19131 305.650751 
L 222.003028 305.637809 
L 222.307422 305.763722 
L 222.408886 305.844788 
L 222.764013 305.891236 
L 223.017674 305.796496 
L 223.372801 305.952811 
L 223.423533 306.044209 
L 223.57573 305.842898 
L 224.691842 305.88956 
L 224.844039 305.980339 
L 225.097701 305.892661 
L 225.351362 305.963714 
L 225.503559 305.891042 
L 225.655756 305.864769 
L 226.213812 305.836598 
L 226.416742 306.021621 
L 226.568939 306.005121 
L 227.532853 305.966466 
L 228.090909 306.041939 
L 228.293838 305.966302 
L 228.5475 306.280364 
L 228.699697 306.064905 
L 229.004091 306.057259 
L 229.257753 306.037016 
L 229.714344 306.139828 
L 229.866541 306.046274 
L 230.526062 306.072024 
L 230.678259 306.040462 
L 231.084118 306.218977 
L 231.13485 306.273943 
L 231.185582 306.176447 
L 231.337779 306.160842 
L 231.642173 306.118759 
L 231.895835 306.064506 
L 232.098764 306.091531 
L 232.200229 306.257573 
L 232.250961 306.383596 
L 232.403158 306.149095 
L 232.809017 306.201804 
L 232.961214 306.18344 
L 233.51927 306.202099 
L 234.584649 306.159364 
L 234.736846 306.142195 
L 235.091973 306.124406 
L 235.447099 306.048797 
L 235.852958 306.083736 
L 236.10662 306.187251 
L 237.730055 306.130544 
L 237.882252 306.028871 
L 238.186646 306.05753 
L 238.288111 306.095427 
L 238.440308 306.120294 
L 239.201293 306.022909 
L 239.404222 305.962054 
L 240.368137 305.900516 
L 240.520334 306.080292 
L 240.571066 306.006034 
L 240.87546 306.054255 
L 241.027657 306.161803 
L 241.230587 305.991621 
L 241.94084 306.054935 
L 242.093037 305.974604 
L 242.295966 305.961569 
L 242.549628 306.010046 
L 244.832583 305.986621 
L 245.136977 306.182745 
L 245.339907 306.039692 
L 245.999427 306.088424 
L 246.253089 306.052627 
L 246.506751 306.052467 
L 246.760412 306.023097 
L 246.912609 305.980243 
L 247.267736 306.053263 
L 247.470665 306.110923 
L 247.673595 306.118784 
L 248.079453 306.024722 
L 248.333115 306.090831 
L 248.891171 306.095083 
L 249.652156 306.005208 
L 249.905818 306.030901 
L 254.218067 305.919771 
L 254.370264 305.891331 
L 255.689305 305.936716 
L 256.044432 305.951685 
L 257.464937 306.040363 
L 257.667867 306.088887 
L 257.820064 306.026203 
L 258.276655 305.973327 
L 258.631781 305.964911 
L 260.255216 305.903198 
L 260.610343 305.898633 
L 261.219131 305.81183 
L 261.62499 305.85748 
L 261.929384 305.876308 
L 262.183046 305.937475 
L 262.690369 305.852113 
L 263.248425 305.982185 
L 263.502087 305.943388 
L 267.002618 305.872411 
L 267.307013 305.835867 
L 277.707143 305.688782 
L 278.06227 305.660839 
L 278.468129 305.653824 
L 279.330579 305.657029 
L 280.142296 305.578375 
L 282.070125 305.613299 
L 282.323787 305.609898 
L 283.439899 305.601679 
L 283.69356 305.572696 
L 284.048687 305.575145 
L 287.752148 305.697621 
L 287.955077 305.671672 
L 288.969724 305.682521 
L 289.121921 305.704806 
L 289.426315 305.736184 
L 289.679977 305.733144 
L 290.491695 305.73169 
L 290.999018 305.699523 
L 293.687832 305.649805 
L 294.803944 305.614944 
L 295.260535 305.601017 
L 296.072253 305.535696 
L 296.376647 305.542835 
L 296.934703 305.519865 
L 297.239097 305.508139 
L 297.543491 305.436649 
L 299.775714 305.205128 
L 300.13084 305.137802 
L 300.739629 305.17966 
L 300.942558 305.095203 
L 301.805008 305.053559 
L 302.007937 304.968142 
L 302.515261 304.913832 
L 302.71819 304.86551 
L 303.174781 304.914246 
L 303.276246 304.941615 
L 303.479175 304.915941 
L 303.935766 304.863958 
L 304.392357 304.807217 
L 305.457737 304.669604 
L 305.660666 304.619833 
L 306.117257 304.647246 
L 306.370919 304.570528 
L 306.878242 304.544807 
L 307.791425 304.442784 
L 308.34948 304.512472 
L 308.806072 304.451449 
L 309.567057 304.440206 
L 310.429507 304.327216 
L 310.683168 304.369322 
L 310.886098 304.306447 
L 312.205139 304.197231 
L 312.4588 304.155425 
L 313.118321 304.022888 
L 313.422715 303.954658 
L 313.625644 303.924456 
L 315.705671 303.59719 
L 315.9086 303.545557 
L 316.060797 303.573062 
L 316.212994 303.513289 
L 316.56812 303.426017 
L 317.329106 303.308543 
L 317.532035 303.215006 
L 318.394485 303.163889 
L 318.597414 303.11578 
L 319.206202 303.12704 
L 320.373046 302.965768 
L 320.728173 302.949061 
L 320.931102 302.896424 
L 321.641355 302.828487 
L 321.844284 302.754995 
L 322.351608 302.729145 
L 322.503805 302.679888 
L 322.706734 302.681486 
L 323.315522 302.529472 
L 323.518452 302.542361 
L 323.721381 302.475841 
L 324.12724 302.48513 
L 324.583831 302.276865 
L 325.040422 302.184988 
L 326.004337 302.061506 
L 326.410196 302.030361 
L 326.562393 302.032124 
L 328.439489 301.749383 
L 328.693151 301.763593 
L 329.96146 301.483037 
L 330.164389 301.432027 
L 330.773177 301.321405 
L 331.077571 301.289515 
L 335.79568 300.283792 
L 335.998609 300.234077 
L 336.759594 300.320721 
L 336.962524 300.321513 
L 337.114721 300.150805 
L 337.774241 300.168029 
L 337.97717 300.144249 
L 338.332297 300.799207 
L 338.535226 301.69575 
L 338.788888 303.463828 
L 338.83962 303.308832 
L 339.04255 304.093962 
L 339.194747 304.375997 
L 339.397676 304.97714 
L 339.752803 305.150401 
L 339.955732 305.362962 
L 340.513788 305.369207 
L 340.868914 305.247114 
L 341.071844 305.227714 
L 341.42697 305.157391 
L 342.390885 305.258346 
L 342.593814 305.319208 
L 342.796743 305.354754 
L 343.354799 305.340864 
L 343.608461 305.357425 
L 343.760658 305.319042 
L 344.420178 305.24165 
L 347.210457 305.304668 
L 347.362654 305.329267 
L 347.514851 305.333843 
L 348.428034 305.399825 
L 348.833892 305.421425 
L 349.239751 305.322074 
L 349.696342 305.37674 
L 349.848539 305.41455 
L 350.254398 305.44684 
L 350.406595 305.409849 
L 351.522707 305.387942 
L 352.03003 305.354269 
L 352.182227 305.437236 
L 352.486621 305.398403 
L 352.689551 305.415757 
L 353.044677 305.433364 
L 353.196874 305.413289 
L 353.247607 305.324837 
L 353.298339 305.410119 
L 353.552001 305.454974 
L 353.602733 305.36218 
L 353.653465 305.431017 
L 356.798871 305.368382 
L 356.951068 305.337793 
L 357.255462 305.3654 
L 358.016447 305.421389 
L 358.117912 305.42554 
L 358.270109 305.395929 
L 360.908191 305.313666 
L 361.11112 305.383753 
L 361.161853 305.275648 
L 361.212585 305.379972 
L 362.379429 305.380778 
L 362.531626 305.341475 
L 362.734555 305.301641 
L 362.886752 305.312054 
L 362.988217 305.094952 
L 363.089682 305.316359 
L 363.140414 305.287377 
L 363.292611 305.287429 
L 363.850667 305.293905 
L 365.727764 305.263462 
L 365.778496 305.097126 
L 365.829228 305.272896 
L 367.148269 305.212634 
L 367.300466 305.207505 
L 367.351199 305.050503 
L 367.401931 305.183493 
L 367.452663 305.207802 
L 367.503396 305.023601 
L 367.554128 305.18705 
L 368.264381 305.139781 
L 368.771704 305.124379 
L 368.923901 305.131621 
L 369.076099 305.154529 
L 369.32976 305.11104 
L 369.481957 305.099082 
L 369.53269 305.024714 
L 369.583422 305.108866 
L 370.445872 305.013576 
L 370.496604 304.875153 
L 370.547337 304.972301 
L 370.953195 305.044383 
L 371.003928 304.8691 
L 371.05466 305.025634 
L 372.120039 305.010517 
L 372.170772 304.885269 
L 372.221504 304.989536 
L 372.322969 304.969378 
L 372.475166 304.903041 
L 372.627363 304.969326 
L 372.931757 304.92514 
L 373.64201 304.93049 
L 373.794207 304.934616 
L 374.149333 304.824808 
L 374.30153 304.858916 
L 374.555192 304.873331 
L 374.910318 304.864383 
L 374.961051 304.754983 
L 375.011783 304.824354 
L 375.214712 304.842979 
L 375.265445 304.760298 
L 375.316177 304.836204 
L 375.569839 304.826044 
L 375.620571 304.701595 
L 375.671303 304.798512 
L 375.772768 304.816876 
L 375.823501 304.72819 
L 375.874233 304.784007 
L 375.975698 304.750133 
L 376.02643 304.59234 
L 376.077162 304.75854 
L 376.533753 304.759963 
L 376.584486 304.620379 
L 376.635218 304.735339 
L 376.736683 304.697095 
L 376.787415 304.512488 
L 376.838147 304.703526 
L 377.091809 304.658487 
L 377.193274 304.651173 
L 377.244006 304.436282 
L 377.294739 304.618521 
L 377.700597 304.595395 
L 377.954259 304.558471 
L 378.004991 304.491505 
L 378.055724 304.570016 
L 378.309385 304.614113 
L 378.512315 304.364801 
L 378.61378 304.540258 
L 378.664512 304.518758 
L 378.816709 304.372367 
L 378.867441 304.513137 
L 379.222568 304.507676 
L 379.425497 304.43323 
L 379.628426 304.470418 
L 379.679159 304.314966 
L 379.729891 304.424661 
L 379.932821 304.455198 
L 380.186482 304.467819 
L 380.389412 304.44845 
L 382.215776 304.366765 
L 382.52017 304.328026 
L 382.570903 304.27414 
L 382.621635 304.330606 
L 383.027494 304.326269 
L 383.078226 304.203362 
L 383.128958 304.281528 
L 383.331888 304.208395 
L 383.484085 304.300135 
L 383.687014 304.295161 
L 383.737747 304.050383 
L 383.788479 304.237726 
L 384.092873 304.181641 
L 384.24507 304.212989 
L 384.397267 304.197331 
L 386.325096 304.087774 
L 386.477293 304.106504 
L 387.136814 304.064486 
L 387.289011 303.94697 
L 387.441208 304.018821 
L 387.644137 303.984452 
L 387.796334 303.99764 
L 387.897799 304.016917 
L 387.948531 303.889251 
L 387.999264 304.007478 
L 388.658784 303.987105 
L 388.709516 303.910235 
L 388.760249 303.95345 
L 388.912446 303.973943 
L 388.963178 303.738686 
L 389.01391 303.843883 
L 389.166108 303.906668 
L 389.21684 303.825344 
L 389.267572 303.878744 
L 389.673431 303.874763 
L 389.724163 303.703658 
L 389.774896 303.838013 
L 389.977825 303.816276 
L 391.144669 303.755802 
L 391.195401 303.644309 
L 391.246134 303.705081 
L 391.347598 303.731577 
L 391.398331 303.610426 
L 391.449063 303.680969 
L 391.651992 303.698988 
L 391.702725 303.54535 
L 391.753457 303.691534 
L 392.615907 303.634761 
L 392.920301 303.625372 
L 393.98568 303.50612 
L 394.18861 303.456118 
L 394.239342 303.341389 
L 394.290074 303.456762 
L 394.391539 303.444329 
L 394.493004 303.397442 
L 394.594469 303.445104 
L 394.645201 303.394077 
L 394.898863 303.425729 
L 395.253989 303.370455 
L 395.355454 303.386604 
L 395.456918 303.33134 
L 395.659848 303.387616 
L 396.420833 303.36402 
L 396.57303 303.175833 
L 396.623762 303.091732 
L 396.725227 303.262428 
L 396.775959 303.098198 
L 396.877424 303.145355 
L 396.978889 303.197405 
L 397.131086 302.876704 
L 397.283283 303.055607 
L 397.942803 303.06502 
L 398.044268 302.852353 
L 398.145733 302.978494 
L 398.855986 302.74862 
L 399.008183 302.831095 
L 399.109647 302.380969 
L 399.16038 302.424972 
L 399.312577 302.532527 
L 399.464774 302.637389 
L 399.515506 302.56073 
L 399.566238 302.626837 
L 400.124294 302.543217 
L 400.175027 302.450575 
L 400.225759 302.548568 
L 400.276491 302.633404 
L 400.377956 302.441072 
L 400.530153 302.514664 
L 401.747729 302.322248 
L 402.20432 302.351235 
L 402.255053 302.264525 
L 402.305785 302.303165 
L 402.610179 302.272876 
L 402.762376 302.071707 
L 402.914573 302.07977 
L 403.06677 302.238064 
L 403.117503 302.213904 
L 403.2697 301.979223 
L 403.421897 302.019746 
L 403.624826 302.001413 
L 403.726291 301.880294 
L 403.878488 302.04299 
L 403.979953 302.012157 
L 404.030685 301.582206 
L 404.13215 301.661431 
L 404.588741 301.774676 
L 404.639473 301.789032 
L 404.690205 301.613311 
L 404.740938 301.647014 
L 405.045332 301.754803 
L 405.096064 301.538548 
L 405.146796 301.67244 
L 405.400458 301.491812 
L 405.603388 301.546578 
L 405.755585 301.496616 
L 406.009246 301.386056 
L 406.161443 301.394077 
L 406.31364 301.2579 
L 407.125358 301.07383 
L 407.277555 300.795961 
L 407.581949 300.685735 
L 407.987808 300.612533 
L 408.089273 300.566479 
L 408.24147 300.331147 
L 408.444399 300.344075 
L 408.647328 300.243128 
L 408.799525 300.337867 
L 409.002455 300.139156 
L 409.256117 300.196345 
L 409.76344 300.112234 
L 409.864905 300.052082 
L 409.915637 300.005891 
L 410.017102 300.121611 
L 410.067834 299.961171 
L 410.169299 300.006898 
L 410.524425 300.080857 
L 410.62589 299.916898 
L 410.676622 299.941936 
L 410.727355 299.831483 
L 410.778087 299.878609 
L 411.133213 299.838388 
L 411.28541 299.807348 
L 411.336143 299.80808 
L 411.48834 299.554893 
L 411.691269 299.457138 
L 411.843466 299.371079 
L 412.097128 299.399328 
L 412.14786 299.161165 
L 412.198593 299.231357 
L 412.502987 299.219605 
L 412.655184 299.256441 
L 412.705916 299.302611 
L 412.807381 299.059407 
L 412.858113 299.07799 
L 413.061042 299.044599 
L 413.162507 298.832806 
L 413.21324 298.932667 
L 413.416169 299.037 
L 413.568366 299.013856 
L 413.619098 298.703059 
L 413.669831 298.769849 
L 413.771295 298.788565 
L 413.822028 298.611233 
L 413.87276 298.669357 
L 413.974225 298.69984 
L 414.126422 298.529508 
L 414.532281 298.425587 
L 414.73521 298.14691 
L 415.851321 298.063946 
L 415.952786 298.145596 
L 416.054251 297.874176 
L 416.104983 297.912596 
L 416.409377 297.92428 
L 416.612307 297.626269 
L 416.713771 297.7158 
L 416.815236 297.604008 
L 416.865968 297.637105 
L 417.018165 297.713888 
L 417.11963 297.644879 
L 417.271827 297.35656 
L 417.525489 297.322516 
L 417.576221 297.346572 
L 417.677686 297.197817 
L 417.728418 297.230306 
L 417.880615 297.203944 
L 418.185009 297.174898 
L 418.337206 297.009644 
L 418.793798 297.028841 
L 419.098192 296.99485 
L 419.453318 296.847106 
L 419.859177 296.689727 
L 420.011374 296.555684 
L 420.620162 296.55735 
L 420.772359 296.207562 
L 421.076753 296.183444 
L 421.22895 295.716861 
L 421.482612 295.340979 
L 421.736274 294.599076 
L 421.888471 294.665476 
L 422.497259 294.807166 
L 422.598724 295.007903 
L 422.801653 294.672649 
L 423.308976 294.749293 
L 423.359709 294.683012 
L 423.410441 294.745069 
L 423.765567 294.711691 
L 423.917765 294.49358 
L 423.968497 294.578379 
L 424.222159 294.702809 
L 424.374356 294.552628 
L 424.47582 294.616396 
L 424.628017 294.544251 
L 424.729482 294.516197 
L 424.881679 294.447724 
L 425.997791 293.975131 
L 426.149988 293.928227 
L 426.352917 293.869472 
L 426.910973 293.853047 
L 426.961705 293.963892 
L 427.012438 293.861765 
L 427.266099 293.840929 
L 427.316832 293.730641 
L 427.367564 293.765167 
L 427.418296 293.794509 
L 427.570493 293.704187 
L 427.773423 293.652712 
L 427.824155 293.669607 
L 427.874887 293.450977 
L 427.976352 293.500256 
L 428.179282 293.367733 
L 428.737337 293.172131 
L 428.990999 293.339502 
L 429.041731 292.95053 
L 429.143196 293.020099 
L 429.193928 293.072965 
L 429.244661 292.983389 
L 429.44759 292.815987 
L 429.599787 292.809325 
L 429.751984 292.667991 
L 429.802717 292.699917 
L 429.954914 292.600825 
L 430.107111 292.642894 
L 430.259308 292.313356 
L 430.462237 292.187084 
L 430.512969 292.171003 
L 430.715899 291.669519 
L 430.817364 291.602555 
L 431.121758 291.568188 
L 431.17249 291.666716 
L 431.223222 291.540374 
L 431.476884 291.298245 
L 431.578349 291.404401 
L 431.629081 291.190697 
L 431.679813 291.255219 
L 431.730546 291.365491 
L 431.882743 291.094407 
L 432.237869 290.900598 
L 432.440799 290.65309 
L 432.592996 290.554987 
L 433.303249 290.183828 
L 433.506178 289.511717 
L 433.658375 289.361362 
L 433.709107 289.357444 
L 433.861304 289.017797 
L 434.114966 289.055265 
L 434.267163 289.158252 
L 434.317895 289.28188 
L 434.368628 289.223651 
L 434.571557 288.995062 
L 434.673022 289.014518 
L 434.875951 288.772098 
L 435.332542 288.423722 
L 435.636936 288.493196 
L 435.789133 287.930226 
L 436.042795 287.825141 
L 436.245725 287.932157 
L 436.397922 287.776867 
L 436.600851 287.685095 
L 436.854513 287.671698 
L 437.00671 287.574452 
L 437.108174 287.607592 
L 437.260371 287.454365 
L 437.564766 286.855248 
L 437.767695 285.894425 
L 437.818427 286.184297 
L 437.86916 285.941346 
L 438.021357 286.084997 
L 438.173554 285.858528 
L 438.325751 285.910435 
L 438.579412 284.785444 
L 438.680877 284.824779 
L 438.782342 284.959553 
L 438.934539 284.893431 
L 439.086736 285.016639 
L 439.238933 285.121902 
L 439.289665 284.995584 
L 439.340398 285.050258 
L 439.39113 285.119418 
L 439.441862 284.973894 
L 439.492595 285.017989 
L 439.594059 284.992904 
L 439.746256 284.960747 
L 439.898453 285.063402 
L 440.152115 284.473399 
L 440.355045 284.180474 
L 440.456509 283.712383 
L 440.507242 283.79773 
L 440.862368 283.485486 
L 441.166762 283.640758 
L 441.268227 283.592816 
L 441.369692 283.899789 
L 441.420424 283.820442 
L 441.623353 283.669501 
L 441.724818 283.733609 
L 441.927747 283.674181 
L 442.029212 283.755553 
L 442.181409 283.597146 
L 442.384338 283.636666 
L 442.536535 283.036873 
L 442.587268 283.056031 
L 442.739465 282.966147 
L 443.145324 282.073808 
L 443.196056 282.166528 
L 443.246788 282.049802 
L 443.297521 282.083458 
L 443.348253 281.91185 
L 443.449718 281.955274 
L 443.906309 281.795576 
L 444.058506 281.858531 
L 444.159971 281.770571 
L 444.210703 281.799126 
L 444.819491 281.842176 
L 444.971688 281.716657 
L 445.479012 281.693704 
L 445.783406 281.565968 
L 445.986335 281.521856 
L 447.051714 281.259395 
L 447.102447 281.210676 
L 447.153179 281.264025 
L 447.254644 281.340018 
L 447.406841 280.988738 
L 447.863432 280.733064 
L 448.015629 281.041084 
L 448.167826 280.416275 
L 448.370755 280.368346 
L 448.522952 280.227043 
L 448.624417 280.193048 
L 448.827346 280.028274 
L 449.233205 279.693942 
L 449.283937 279.736967 
L 449.436135 279.556131 
L 451.05957 278.919404 
L 451.211767 278.702711 
L 451.71909 278.809011 
L 451.871287 278.507894 
L 452.074217 278.367943 
L 452.277146 277.85152 
L 452.327878 278.002882 
L 452.378611 277.949768 
L 452.58154 277.773632 
L 452.784469 277.711425 
L 452.987399 277.703507 
L 453.291793 277.898588 
L 453.342525 278.081069 
L 453.494722 277.566315 
L 453.697652 277.476042 
L 453.748384 277.498129 
L 453.900581 277.371363 
L 454.10351 277.519327 
L 454.154243 277.669133 
L 454.357172 277.205834 
L 454.560101 276.690441 
L 454.864496 275.85082 
L 454.915228 276.109001 
L 455.016693 276.070793 
L 455.16889 276.132624 
L 455.321087 276.295953 
L 455.371819 276.140725 
L 455.777678 276.25749 
L 455.980607 275.684032 
L 456.234269 275.078328 
L 456.741592 275.17481 
L 456.944522 274.64462 
L 456.995254 274.821309 
L 457.045986 274.765085 
L 457.198183 274.825694 
L 457.401113 275.074171 
L 457.55331 274.809432 
L 457.959169 274.622659 
L 458.466492 274.461465 
L 458.720154 274.567103 
L 458.872351 274.605535 
L 458.923083 274.680654 
L 459.126013 274.318873 
L 459.227477 274.278275 
L 459.430407 274.139978 
L 460.089927 273.826403 
L 460.394321 273.628044 
L 460.597251 273.723013 
L 460.80018 273.159809 
L 461.053842 273.168945 
L 461.206039 272.997812 
L 461.814827 272.941576 
L 462.017756 272.803473 
L 462.169953 272.762579 
L 462.372883 272.580755 
L 462.575812 272.519666 
L 462.728009 272.497987 
L 462.880206 272.43069 
L 463.1846 272.182611 
L 463.691924 271.60777 
L 463.844121 270.507505 
L 463.894853 271.011263 
L 463.945585 270.430044 
L 463.996318 270.323212 
L 464.04705 270.715928 
L 464.097783 270.578894 
L 464.452909 270.807313 
L 464.554374 270.90668 
L 464.605106 270.689815 
L 464.655838 270.753975 
L 464.757303 270.815929 
L 464.858768 271.060488 
L 465.010965 270.658517 
L 465.416824 270.557663 
L 465.569021 270.437573 
L 465.670485 270.414625 
L 465.873415 270.293864 
L 466.330006 270.370431 
L 466.43147 270.634854 
L 466.6344 270.296692 
L 467.090991 270.276377 
L 467.141723 270.388371 
L 467.29392 270.07752 
L 467.49685 270.097006 
L 467.699779 270.363701 
L 467.750511 270.261615 
L 467.801244 270.301067 
L 467.953441 270.097573 
L 468.3593 269.869839 
L 468.562229 269.854849 
L 468.968088 269.900042 
L 469.323214 269.723866 
L 469.627608 269.564229 
L 469.982735 269.573134 
L 470.134932 269.411811 
L 470.74372 269.203201 
L 470.895917 269.137209 
L 471.251043 268.996798 
L 471.961296 269.030803 
L 472.164226 268.394042 
L 472.26569 268.215671 
L 472.316423 267.982059 
L 472.367155 268.09897 
L 472.46862 268.062238 
L 472.722281 267.876317 
L 472.874478 267.860935 
L 472.975943 267.945843 
L 473.12814 267.781829 
L 473.280337 267.821455 
L 473.331069 267.979705 
L 473.483267 267.657338 
L 473.787661 267.558569 
L 473.99059 267.564024 
L 474.244252 267.731518 
L 474.294984 267.841074 
L 474.447181 267.443777 
L 474.599378 267.490117 
L 474.85304 267.636807 
L 474.903772 267.79457 
L 474.954505 267.62533 
L 475.360363 267.408345 
L 475.51256 267.516044 
L 475.614025 267.545737 
L 475.766222 267.422869 
L 476.121348 267.300816 
L 476.324278 267.343726 
L 476.527207 267.308534 
L 476.628672 267.284561 
L 476.831601 267.071602 
L 477.23746 266.950387 
L 477.592587 267.317703 
L 477.643319 267.113585 
L 477.694051 267.158577 
L 477.998445 267.121217 
L 478.911628 266.971847 
L 479.013092 266.89261 
L 479.165289 266.714803 
L 479.266754 266.667697 
L 479.469683 266.247304 
L 479.571148 265.158506 
L 479.62188 265.173109 
L 479.774077 266.376204 
L 479.82481 266.520972 
L 479.875542 266.160097 
L 479.926274 266.227348 
L 479.977007 266.429272 
L 480.129204 265.855375 
L 480.433598 265.737918 
L 480.535063 265.844682 
L 480.585795 265.679464 
L 480.636527 265.835712 
L 480.788724 265.895959 
L 480.940921 265.633811 
L 481.245315 265.53417 
L 481.34678 265.537337 
L 481.54971 265.76265 
L 481.600442 265.697589 
L 481.854104 265.752996 
L 482.259962 265.812714 
L 482.412159 265.738294 
L 482.564356 265.743016 
L 482.716553 265.647099 
L 482.818018 265.71703 
L 483.020948 265.560297 
L 483.376074 265.568711 
L 483.477539 265.614944 
L 483.680468 265.275736 
L 483.781933 265.109886 
L 483.883397 264.64726 
L 484.086327 265.777041 
L 484.137059 266.000753 
L 484.187792 265.650504 
L 484.289256 265.689923 
L 484.441453 265.657097 
L 484.59365 265.578638 
L 484.79658 265.610279 
L 484.948777 265.659551 
L 485.151706 265.569859 
L 485.253171 265.652741 
L 485.506833 265.491687 
L 485.709762 265.484714 
L 485.760494 265.428352 
L 485.811227 265.505601 
L 486.31855 265.507434 
L 486.521479 265.335553 
L 487.282465 264.505321 
L 487.739056 263.976432 
L 488.398576 263.287325 
L 488.652238 262.946136 
L 488.70297 262.995189 
L 488.753703 263.062058 
L 488.9059 260.9471 
L 489.058097 267.121048 
L 489.108829 262.558145 
L 489.210294 262.912869 
L 489.413223 262.775008 
L 489.463955 262.814849 
L 489.819082 262.167873 
L 490.022011 263.553867 
L 490.174208 261.520321 
L 490.275673 262.113913 
L 490.326405 262.417691 
L 490.377138 261.966566 
L 490.42787 262.080143 
L 490.478602 262.080561 
L 490.833729 251.226173 
L 490.884461 251.838936 
L 490.935194 250.99105 
L 490.985926 252.584703 
L 491.138123 249.208196 
L 491.442517 248.184777 
L 491.493249 248.265371 
L 491.543982 248.775592 
L 491.594714 248.57454 
L 491.746911 248.619322 
L 492.355699 247.677083 
L 492.507896 247.745142 
L 492.609361 246.82719 
L 492.660093 246.997544 
L 492.81229 246.316765 
L 492.863023 244.943835 
L 492.913755 246.106669 
L 493.01522 245.629365 
L 493.065952 244.0257 
L 493.116684 244.411411 
L 493.167417 244.620833 
L 493.218149 244.432322 
L 493.319614 243.829091 
L 493.370346 243.933601 
L 493.573276 243.815901 
L 493.725473 243.31712 
L 493.87767 243.088303 
L 494.131331 242.815679 
L 494.943049 241.783608 
L 495.095246 241.603087 
L 495.196711 241.505929 
L 495.501105 241.174132 
L 495.704034 240.961902 
L 495.856231 240.730164 
L 495.957696 241.032445 
L 496.008428 241.778908 
L 496.109893 236.455372 
L 496.160625 236.964302 
L 496.363555 234.772428 
L 496.414287 234.820428 
L 496.465019 235.482605 
L 496.515752 235.44318 
L 496.566484 235.341073 
L 496.718681 236.364028 
L 496.769413 237.535403 
L 496.820146 237.443382 
L 496.92161 237.310258 
L 497.073807 237.478283 
L 497.428934 236.312351 
L 497.530398 236.214025 
L 497.733328 235.721847 
L 497.885525 236.621509 
L 498.189919 236.419796 
L 498.342116 236.192113 
L 498.392848 236.272869 
L 498.595778 236.020551 
L 498.697242 235.882864 
L 498.798707 235.93485 
L 500.269945 234.258295 
L 500.320678 234.64689 
L 500.422142 233.794629 
L 500.472875 233.832956 
L 500.574339 233.683564 
L 500.625072 233.435005 
L 500.675804 233.754213 
L 500.777269 233.719925 
L 501.03093 233.111292 
L 501.081663 233.300671 
L 501.132395 233.261306 
L 501.183127 233.025368 
L 501.23386 233.104836 
L 501.284592 233.152746 
L 501.538254 231.360753 
L 501.588986 229.393671 
L 501.89338 243.415242 
L 502.045577 240.074957 
L 502.197774 242.897322 
L 502.349971 245.801895 
L 502.451436 242.293023 
L 502.502168 244.143584 
L 502.654365 242.297678 
L 502.705098 242.960184 
L 502.75583 241.018753 
L 502.806562 241.585586 
L 502.857295 242.051316 
L 502.908027 241.865344 
L 503.009492 240.162004 
L 503.110957 240.388268 
L 503.161689 240.442305 
L 503.212421 240.38924 
L 503.415351 239.798159 
L 503.669012 239.522898 
L 503.821209 239.414101 
L 504.024139 238.963947 
L 504.125603 238.694241 
L 504.277801 237.753079 
L 504.48073 237.44358 
L 504.531462 237.491079 
L 504.632927 237.388353 
L 504.683659 237.227124 
L 504.734392 237.254323 
L 504.835856 237.278753 
L 504.937321 237.065329 
L 505.089518 236.687348 
L 505.14025 236.666025 
L 505.190983 236.48815 
L 505.241715 237.002295 
L 505.292447 236.923588 
L 505.34318 236.851541 
L 505.444644 236.898627 
L 505.546109 235.647514 
L 505.596842 234.378041 
L 505.698306 234.492997 
L 505.749039 234.453796 
L 505.799771 235.647418 
L 505.850503 235.515667 
L 505.951968 235.090543 
L 506.053433 236.42297 
L 506.104165 236.071474 
L 506.154897 235.124672 
L 506.256362 235.28218 
L 506.408559 235.827745 
L 506.459291 235.702712 
L 506.611488 234.79051 
L 506.662221 234.836005 
L 506.712953 234.759461 
L 506.86515 234.435019 
L 506.966615 233.750025 
L 507.118812 235.10363 
L 507.372474 232.502512 
L 507.423206 228.858818 
L 507.473938 229.049622 
L 507.575403 231.103446 
L 507.7276 226.615466 
L 507.829065 228.897409 
L 507.879797 228.605499 
L 508.031994 225.302199 
L 508.082726 225.408608 
L 508.133459 226.801524 
L 508.184191 226.677212 
L 508.387121 225.038769 
L 508.488585 227.344201 
L 508.539318 227.219768 
L 508.59005 227.049745 
L 508.640782 227.701213 
L 508.691515 227.385882 
L 508.843712 225.750666 
L 509.046641 225.054901 
L 509.097373 225.257429 
L 509.198838 225.847497 
L 509.300303 225.613241 
L 509.655429 221.833623 
L 509.706162 222.20865 
L 509.756894 221.596746 
L 509.807626 222.191059 
L 509.858359 222.327236 
L 510.010556 222.930971 
L 510.061288 222.863785 
L 510.11202 222.917956 
L 510.162753 222.978207 
L 510.213485 222.725133 
L 510.31495 224.156903 
L 510.365682 223.767725 
L 510.416414 223.75233 
L 510.517879 224.90781 
L 510.568611 224.792842 
L 510.619344 224.925271 
L 510.670076 224.495941 
L 510.720808 224.947855 
L 510.97447 224.115188 
L 511.126667 224.633069 
L 511.1774 224.533115 
L 511.278864 224.080754 
L 511.380329 224.274736 
L 511.431061 224.293836 
L 511.532526 223.992833 
L 511.583258 224.129321 
L 511.633991 224.179797 
L 511.989117 223.382969 
L 512.039849 223.600602 
L 512.090582 223.379838 
L 512.293511 222.889011 
L 512.344244 223.000306 
L 512.394976 222.880738 
L 512.445708 222.899213 
L 512.69937 222.481403 
L 512.750102 222.642156 
L 512.800835 222.603468 
L 513.003764 222.397089 
L 513.054496 222.421209 
L 513.105229 222.846515 
L 513.35889 217.923349 
L 513.409623 221.707851 
L 513.511087 221.131074 
L 513.612552 221.10404 
L 513.815482 220.124255 
L 513.866214 218.123242 
L 514.018411 226.765186 
L 514.170608 228.86015 
L 514.880861 224.00345 
L 514.982326 223.893427 
L 515.134523 223.434606 
L 515.185255 223.448334 
L 515.28672 222.504056 
L 515.337452 223.391703 
L 515.388184 223.226231 
L 515.540381 222.95108 
L 515.591114 222.790855 
L 515.641846 222.868296 
L 515.692578 222.921485 
L 515.743311 222.843266 
L 515.895508 222.551672 
L 516.149169 222.156897 
L 516.199902 222.265726 
L 516.250634 222.228434 
L 516.910155 220.611882 
L 516.960887 221.422736 
L 517.011619 221.40931 
L 517.163816 220.602293 
L 517.214549 220.678953 
L 517.265281 220.343792 
L 517.316013 220.742725 
L 517.620407 219.833907 
L 517.67114 220.141082 
L 517.721872 219.774569 
L 517.772605 219.648985 
L 517.874069 220.673658 
L 517.924802 220.431046 
L 518.127731 215.114964 
L 518.178463 207.904833 
L 518.229196 209.95388 
L 518.279928 214.468591 
L 518.33066 212.183741 
L 518.381393 211.999037 
L 518.482857 208.900769 
L 518.53359 211.061447 
L 518.635054 208.18357 
L 518.787251 211.071598 
L 518.837984 207.249636 
L 518.939448 207.35697 
L 519.040913 204.125191 
L 519.091646 205.154697 
L 519.19311 207.362474 
L 519.345307 205.067058 
L 519.39604 206.641586 
L 519.446772 206.188494 
L 519.548237 204.451007 
L 519.700434 207.063405 
L 519.751166 206.858453 
L 519.801898 206.435292 
L 519.852631 207.147229 
L 519.954095 207.066818 
L 520.004828 207.044988 
L 520.05556 206.74907 
L 520.106292 206.884473 
L 520.157025 206.899201 
L 520.359954 206.46641 
L 520.410687 206.520657 
L 520.512151 206.190453 
L 520.562884 206.345097 
L 520.613616 206.164113 
L 520.816545 205.984643 
L 521.019475 205.65414 
L 521.425333 205.065871 
L 521.729728 204.752978 
L 521.831192 204.320743 
L 521.881925 204.633592 
L 521.932657 204.623468 
L 521.983389 204.909205 
L 522.034122 203.580677 
L 522.084854 203.601879 
L 522.541445 215.514832 
L 522.693642 213.506227 
L 522.744374 215.084037 
L 522.845839 209.419701 
L 522.896571 210.328485 
L 522.947304 210.370406 
L 523.150233 207.828728 
L 523.556092 206.962237 
L 523.606824 206.77432 
L 523.657557 206.867479 
L 523.759021 206.802959 
L 523.860486 206.710103 
L 524.063415 206.384464 
L 524.317077 206.1243 
L 524.469274 205.880349 
L 524.520007 205.866321 
L 524.722936 205.458321 
L 525.534653 204.620013 
L 525.636118 204.544491 
L 525.940512 201.592693 
L 526.143442 206.043443 
L 526.346371 198.87906 
L 526.447836 198.358703 
L 526.5493 199.97385 
L 526.701497 196.237561 
L 526.75223 195.563905 
L 526.853694 197.208161 
L 527.056624 193.993806 
L 527.158089 193.725187 
L 527.208821 193.899755 
L 527.259553 193.037639 
L 527.310286 194.032817 
L 527.361018 193.793904 
L 527.41175 193.936704 
L 527.462483 194.28539 
L 527.563947 192.891228 
L 527.665412 195.322356 
L 527.716144 194.182914 
L 527.766877 194.287341 
L 527.817609 193.89863 
L 527.919074 190.674493 
L 528.071271 194.56371 
L 528.122003 195.324986 
L 528.223468 199.288228 
L 528.2742 199.113612 
L 528.47713 199.632296 
L 528.578594 198.694713 
L 528.882988 200.436192 
L 529.085918 199.612578 
L 529.13665 200.473054 
L 529.187382 200.41469 
L 529.238115 200.120556 
L 529.339579 201.127908 
L 529.390312 201.027907 
L 529.542509 198.230257 
L 529.593241 194.915099 
L 529.643973 196.231341 
L 529.846903 194.454474 
L 529.9991 195.065895 
L 530.049832 195.169154 
L 530.151297 193.672501 
L 530.202029 194.211722 
L 530.252762 194.044638 
L 530.404959 193.78237 
L 530.455691 193.733893 
L 530.506423 193.813086 
L 530.607888 193.808858 
L 530.963014 193.404151 
L 531.013747 193.553116 
L 531.064479 193.345611 
L 531.115212 193.895763 
L 531.267409 192.012785 
L 531.368873 191.84375 
L 531.419606 191.96896 
L 531.470338 191.429607 
L 531.622535 192.274196 
L 531.673267 192.450645 
L 531.876197 191.70622 
L 532.028394 191.51522 
L 532.180591 191.999025 
L 532.58645 190.572457 
L 532.789379 191.342594 
L 532.840111 192.150528 
L 532.992308 195.683636 
L 533.195238 195.292406 
L 533.398167 195.078244 
L 534.159152 194.042447 
L 534.209885 193.958608 
L 534.463546 192.259428 
L 534.565011 192.595091 
L 534.76794 192.06719 
L 534.869405 191.958389 
L 534.97087 191.135654 
L 535.123067 194.234718 
L 535.224532 194.221683 
L 535.528926 193.716076 
L 536.442108 192.735081 
L 536.543573 193.282506 
L 536.594305 193.029013 
L 536.69577 191.543609 
L 536.746502 191.786688 
L 536.797234 191.651113 
L 537.050896 194.142336 
L 537.203093 191.537253 
L 537.406022 193.232821 
L 537.558219 187.498512 
L 537.710416 188.902394 
L 537.862614 186.192279 
L 537.913346 186.513473 
L 537.964078 184.950625 
L 538.014811 186.486324 
L 538.522134 182.019658 
L 538.572866 182.641785 
L 538.623599 182.814038 
L 538.826528 180.972027 
L 538.87726 181.508652 
L 538.927993 181.711942 
L 539.08019 180.887862 
L 539.130922 180.901296 
L 539.181655 179.969226 
L 539.232387 180.901091 
L 539.536781 179.519392 
L 539.638246 178.821374 
L 539.688978 179.604346 
L 539.73971 179.436817 
L 539.841175 178.811713 
L 539.891907 179.202016 
L 539.993372 179.061327 
L 540.044104 178.668998 
L 540.145569 177.237802 
L 540.297766 178.601869 
L 540.348498 177.897443 
L 540.399231 178.290028 
L 540.449963 178.289744 
L 540.60216 177.549892 
L 540.754357 177.654827 
L 540.80509 178.112534 
L 540.855822 178.047566 
L 541.008019 177.895925 
L 541.058751 178.201032 
L 541.109484 177.84888 
L 541.210948 178.10099 
L 541.363145 177.74987 
L 541.413878 177.936287 
L 541.46461 177.638249 
L 541.515342 177.837288 
L 541.566075 178.006091 
L 541.718272 177.694718 
L 541.769004 177.792006 
L 541.819737 177.692652 
L 542.022666 177.311918 
L 542.225595 177.205312 
L 542.428525 176.483793 
L 542.682186 176.105356 
L 542.732919 176.174154 
L 542.783651 176.762386 
L 542.834383 176.387809 
L 542.885116 176.429546 
L 542.98658 179.664909 
L 543.138778 175.621516 
L 543.341707 172.917274 
L 543.392439 175.44139 
L 543.443172 172.873412 
L 543.493904 173.219783 
L 543.544636 175.940013 
L 543.646101 175.795872 
L 543.747566 176.053783 
L 543.798298 175.594445 
L 543.84903 176.068958 
L 543.899763 175.960553 
L 543.950495 175.054943 
L 544.001227 175.145697 
L 544.102692 175.424802 
L 544.153424 175.321004 
L 544.204157 175.246602 
L 544.254889 174.836892 
L 544.457819 183.531986 
L 544.508551 182.371827 
L 544.559283 181.839659 
L 544.610016 178.741336 
L 544.660748 182.315652 
L 544.762213 183.994028 
L 544.812945 183.89581 
L 544.91441 183.968129 
L 544.965142 183.664792 
L 545.117339 188.915269 
L 545.168071 188.831156 
L 545.421733 188.98056 
L 545.675395 188.567702 
L 545.827592 188.549672 
L 545.878324 188.426042 
L 545.979789 187.853233 
L 546.081254 187.97295 
L 546.334915 187.565673 
L 546.639309 189.385503 
L 546.740774 186.770977 
L 546.943703 192.271888 
L 547.146633 204.864443 
L 547.197365 205.208412 
L 547.400295 211.720383 
L 547.451027 209.498614 
L 547.501759 209.611068 
L 547.552492 209.41816 
L 547.603224 210.288192 
L 547.653956 209.332937 
L 547.704689 207.494096 
L 547.755421 207.597314 
L 547.806153 208.514685 
L 547.856886 208.20851 
L 547.907618 208.044104 
L 548.110547 205.449557 
L 548.16128 205.468342 
L 548.262744 205.377784 
L 548.414941 204.363671 
L 548.465674 204.378405 
L 548.516406 204.602447 
L 548.668603 205.654449 
L 548.719336 205.358017 
L 548.770068 205.600883 
L 548.8208 205.82731 
L 548.922265 204.870156 
L 548.972997 204.921915 
L 549.175927 204.685238 
L 549.226659 204.814702 
L 549.328124 205.951288 
L 549.68325 197.286335 
L 549.784715 199.392828 
L 549.835447 199.358764 
L 549.88618 199.271813 
L 550.038377 198.268043 
L 550.089109 198.601336 
L 550.139841 198.355256 
L 550.190574 197.703765 
L 550.393503 199.913528 
L 550.444235 199.730725 
L 550.494968 198.591245 
L 550.5457 198.835779 
L 550.596432 199.38309 
L 550.697897 198.187551 
L 550.748629 198.569243 
L 550.799362 198.507345 
L 551.002291 196.190433 
L 551.611079 193.943561 
L 551.814009 193.773414 
L 551.864741 193.954354 
L 551.915473 193.818298 
L 552.118403 192.846976 
L 552.219867 193.372582 
L 552.321332 193.257698 
L 552.372064 193.094913 
L 552.473529 193.796123 
L 552.524262 193.079849 
L 552.574994 193.867533 
L 552.676459 194.374113 
L 552.93012 191.052939 
L 552.980853 192.716389 
L 553.082317 192.626838 
L 553.183782 192.615498 
L 553.234514 192.71515 
L 553.488176 192.180639 
L 553.640373 192.089767 
L 553.894035 191.690038 
L 554.198429 191.259044 
L 554.249161 191.385774 
L 554.299894 191.310371 
L 554.452091 191.057863 
L 554.502823 191.042252 
L 554.65502 190.589498 
L 554.756485 190.919873 
L 554.908682 189.127191 
L 554.959414 189.324011 
L 555.213076 178.626323 
L 555.466738 185.11363 
L 555.568202 181.866518 
L 555.618935 182.377013 
L 555.669667 184.862602 
L 555.771132 184.785717 
L 555.872596 185.233707 
L 556.075526 182.749888 
L 556.17699 189.509717 
L 556.227723 188.763806 
L 556.278455 187.658486 
L 556.430652 192.123315 
L 556.532117 193.624203 
L 556.582849 192.742013 
L 556.684314 190.540496 
L 556.735046 191.621188 
L 556.836511 190.927943 
L 556.887243 192.048243 
L 556.937976 190.231997 
L 556.988708 190.817825 
L 557.03944 191.143611 
L 557.191637 190.088716 
L 557.293102 190.312212 
L 557.445299 189.981612 
L 557.597496 189.661476 
L 557.648228 189.964428 
L 557.698961 189.752018 
L 557.800425 189.534244 
L 557.952623 188.88226 
L 558.003355 189.161759 
L 558.054087 189.178116 
L 558.155552 188.848997 
L 558.257017 189.297303 
L 558.409214 188.664171 
L 558.510678 188.714213 
L 558.561411 188.716674 
L 558.612143 188.599701 
L 558.76434 189.705199 
L 558.815072 189.356369 
L 558.967269 184.155308 
L 559.018002 184.280669 
L 559.322396 183.401458 
L 559.373128 183.680705 
L 559.423861 183.631384 
L 559.474593 183.53981 
L 559.728255 185.364008 
L 559.829719 185.220559 
L 559.931184 185.359359 
L 560.184846 184.676771 
L 560.28631 184.943588 
L 560.387775 184.537136 
L 560.438507 184.546239 
L 560.539972 184.351246 
L 560.590705 184.442556 
L 560.641437 184.538491 
L 560.692169 184.995088 
L 560.742902 186.891411 
L 560.793634 186.175281 
L 560.844366 186.295156 
L 560.895099 185.859084 
L 561.098028 188.494199 
L 561.14876 187.918594 
L 561.300957 187.66124 
L 561.453154 186.872839 
L 561.554619 186.944853 
L 561.605351 187.017176 
L 561.859013 186.094267 
L 561.909746 186.393206 
L 561.960478 186.131152 
L 562.01121 186.300816 
L 562.112675 185.993174 
L 562.163407 186.028313 
L 562.21414 186.102402 
L 562.264872 186.036212 
L 562.315604 185.893574 
L 562.467801 186.954544 
L 562.670731 185.46911 
L 562.822928 184.874625 
L 562.975125 188.250861 
L 563.025857 186.933907 
L 563.076589 190.468098 
L 563.178054 190.320835 
L 563.228787 190.6407 
L 563.279519 190.574935 
L 563.330251 190.486078 
L 563.482448 189.960855 
L 563.533181 189.954475 
L 563.73611 189.437995 
L 563.786842 189.484297 
L 563.837575 189.35573 
L 563.989772 189.551473 
L 564.091236 189.088558 
L 564.141969 189.102227 
L 564.192701 189.106174 
L 564.243433 189.319171 
L 564.39563 187.863891 
L 564.446363 188.310933 
L 564.59856 186.712975 
L 564.750757 188.295163 
L 564.801489 188.208781 
L 564.902954 190.499706 
L 565.004419 190.070855 
L 565.055151 190.032515 
L 565.105883 190.545108 
L 565.156616 190.510967 
L 565.308813 190.076641 
L 565.359545 190.236895 
L 565.410277 190.111369 
L 565.511742 189.918493 
L 565.562474 190.022646 
L 565.714671 189.754912 
L 565.816136 189.670932 
L 566.32346 189.039764 
L 566.424924 189.007358 
L 566.577121 188.902831 
L 566.627854 188.871938 
L 566.780051 187.009172 
L 566.830783 187.222311 
L 566.932248 192.008542 
L 566.98298 191.877094 
L 567.135177 187.335765 
L 567.439571 178.906272 
L 567.490304 179.066875 
L 567.541036 179.789364 
L 567.693233 177.320595 
L 567.84543 174.793255 
L 567.896162 175.399991 
L 567.946895 175.775027 
L 567.997627 177.277974 
L 568.048359 176.936209 
L 568.200556 176.695015 
L 568.251289 176.888022 
L 568.302021 176.72893 
L 568.352753 176.510825 
L 568.403486 176.741018 
L 568.50495 176.944537 
L 568.555683 176.882988 
L 568.606415 176.792263 
L 568.758612 176.20206 
L 568.809345 176.074076 
L 568.910809 176.491764 
L 569.063006 175.947005 
L 569.265936 175.892691 
L 569.316668 176.322477 
L 569.3674 175.961345 
L 569.57033 171.61693 
L 569.621062 167.317722 
L 569.773259 175.248217 
L 569.823991 179.240881 
L 569.925456 163.77381 
L 569.976189 165.562218 
L 570.128386 164.061109 
L 570.179118 163.789587 
L 570.22985 164.934312 
L 570.331315 158.347544 
L 570.382047 160.489917 
L 570.584977 166.224579 
L 570.635709 164.738413 
L 570.686441 164.457455 
L 570.737174 166.18404 
L 570.787906 165.44959 
L 570.889371 163.319873 
L 570.940103 163.705669 
L 570.990835 163.752874 
L 571.041568 163.670952 
L 571.0923 163.271335 
L 571.143032 163.536227 
L 571.193765 163.520378 
L 571.345962 162.774193 
L 571.447427 162.925236 
L 571.548891 163.106451 
L 571.904018 162.768686 
L 571.95475 162.804798 
L 572.005482 163.246656 
L 572.056215 162.834247 
L 572.208412 162.012361 
L 572.259144 162.168471 
L 572.360609 161.472667 
L 572.411341 161.575355 
L 572.512806 163.186706 
L 572.665003 160.941823 
L 572.715735 160.586434 
L 572.969397 168.014919 
L 573.121594 163.844526 
L 573.172326 166.101237 
L 573.223059 165.785805 
L 573.375256 164.89779 
L 573.425988 165.499847 
L 573.527453 163.623287 
L 573.578185 163.965448 
L 573.67965 164.94838 
L 573.730382 164.173194 
L 573.781114 164.275362 
L 573.831847 164.939338 
L 573.882579 164.916807 
L 574.085509 159.846829 
L 574.136241 160.469367 
L 574.186973 159.720687 
L 574.288438 159.779188 
L 574.389903 160.266637 
L 574.440635 159.320706 
L 574.491367 159.60669 
L 574.5421 159.972724 
L 574.745029 158.513026 
L 574.795761 158.723097 
L 574.846494 158.516894 
L 574.897226 157.846255 
L 574.998691 157.975986 
L 575.20162 157.607711 
L 575.252353 157.701929 
L 575.303085 157.588534 
L 575.455282 157.251206 
L 575.506014 157.133064 
L 575.658211 157.776365 
L 575.759676 156.975881 
L 575.810408 157.057975 
L 575.861141 157.137852 
L 576.06407 155.608329 
L 576.165535 159.167913 
L 576.216267 157.468898 
L 576.266999 158.092181 
L 576.469929 163.109212 
L 576.571394 161.960051 
L 576.622126 163.387152 
L 576.723591 163.162268 
L 576.774323 163.086123 
L 577.129449 166.850176 
L 577.180182 166.546902 
L 577.332379 164.281358 
L 577.383111 164.42886 
L 577.687505 163.129231 
L 577.78897 163.711547 
L 577.991899 163.256565 
L 578.042632 163.477556 
L 578.093364 163.398146 
L 578.194829 163.28793 
L 578.245561 164.003489 
L 578.499223 157.751658 
L 578.65142 165.336465 
L 578.702152 166.001224 
L 578.752884 164.684882 
L 578.803617 164.942668 
L 578.905081 166.068582 
L 578.955814 165.753955 
L 579.057278 167.558114 
L 579.108011 167.105658 
L 579.158743 167.010788 
L 579.260208 167.530379 
L 579.412405 167.250043 
L 579.463137 167.434513 
L 579.51387 167.333914 
L 579.868996 166.913995 
L 580.122658 166.651347 
L 580.325587 166.745566 
L 580.427052 165.34056 
L 580.579249 166.768044 
L 580.629981 166.667847 
L 580.782178 162.069384 
L 580.832911 162.185245 
L 580.883643 162.447466 
L 581.086572 161.118252 
L 581.390966 160.842929 
L 581.847557 160.166901 
L 581.949022 160.069227 
L 581.999755 159.956557 
L 582.050487 160.036743 
L 582.101219 160.080793 
L 582.253416 159.440811 
L 582.304149 160.051298 
L 582.405613 158.95999 
L 582.456346 159.44858 
L 582.55781 159.622928 
L 582.659275 161.126329 
L 582.76074 158.431909 
L 582.862204 160.385258 
L 582.912937 160.260371 
L 583.014401 159.197089 
L 583.065134 163.541576 
L 583.115866 163.425419 
L 583.572457 145.499168 
L 583.62319 147.887995 
L 583.673922 143.436632 
L 583.724654 143.966508 
L 583.826119 145.180185 
L 583.927584 142.349748 
L 583.978316 142.402913 
L 584.029048 142.545363 
L 584.130513 143.743712 
L 584.181245 143.562133 
L 584.231978 143.124011 
L 584.434907 145.822065 
L 584.536372 141.578944 
L 584.587104 141.811297 
L 584.637837 140.696638 
L 584.739301 142.761413 
L 584.790034 142.634958 
L 584.840766 144.113235 
L 584.992963 136.860467 
L 585.043695 137.378809 
L 585.094428 135.277717 
L 585.14516 136.10959 
L 585.246625 136.561698 
L 585.398822 144.622761 
L 585.601751 145.378765 
L 585.753948 144.512566 
L 586.464201 143.657141 
L 586.565666 143.73026 
L 586.616398 144.152159 
L 586.920792 138.734985 
L 586.971524 140.361697 
L 587.022257 142.070049 
L 587.072989 141.470139 
L 587.174454 139.865974 
L 587.326651 145.676295 
L 587.377383 146.219367 
L 587.428116 145.848179 
L 587.884707 145.327114 
L 588.036904 145.638939 
L 588.087636 145.681387 
L 588.594959 143.56161 
L 588.645692 143.936005 
L 588.696424 143.745422 
L 588.747157 143.490562 
L 588.797889 142.563991 
L 588.899354 142.68979 
L 589.355945 141.776573 
L 589.406677 141.858837 
L 589.660339 142.469878 
L 589.711071 142.477624 
L 589.914 141.793643 
L 589.964733 141.951312 
L 590.015465 141.791805 
L 590.269127 141.489233 
L 590.421324 141.429281 
L 590.674986 140.979186 
L 590.725718 141.182618 
L 590.77645 141.030743 
L 590.97938 140.628318 
L 591.030112 140.730978 
L 591.080844 140.703487 
L 591.182309 140.509754 
L 591.233041 140.572872 
L 591.385239 140.144492 
L 591.486703 140.294488 
L 591.588168 140.080116 
L 591.6389 140.106144 
L 591.689633 140.086432 
L 591.740365 139.92009 
L 591.791097 140.813164 
L 591.84183 140.057107 
L 591.892562 140.175715 
L 592.044759 137.149325 
L 592.247688 153.220694 
L 592.298421 153.351005 
L 592.349153 153.058446 
L 592.399885 153.343702 
L 592.50135 155.130211 
L 592.653547 159.039336 
L 592.755012 154.466206 
L 592.805744 156.294569 
L 593.110138 149.354765 
L 593.160871 149.572556 
L 593.211603 149.511991 
L 593.262335 148.034242 
L 593.313068 149.865461 
L 593.3638 147.783969 
L 593.414532 148.496431 
L 593.465265 147.434118 
L 593.566729 147.491763 
L 593.718926 146.227787 
L 593.820391 146.339835 
L 594.124785 145.785741 
L 594.276982 145.676043 
L 594.784306 145.023197 
L 594.835038 144.606995 
L 594.987235 146.996272 
L 595.0887 139.822865 
L 595.139432 141.222843 
L 595.190164 140.885829 
L 595.342362 139.312907 
L 595.494559 139.869578 
L 595.596023 139.707392 
L 595.646756 139.367131 
L 595.74822 139.419269 
L 595.849685 139.155739 
L 595.900417 139.350931 
L 595.95115 139.123431 
L 596.103347 139.230758 
L 596.204811 139.012975 
L 596.509205 138.412444 
L 596.559938 138.43966 
L 596.661403 138.366001 
L 596.712135 138.336776 
L 596.8136 138.46353 
L 596.864332 138.346954 
L 597.067261 135.803361 
L 597.117994 136.060503 
L 597.320923 125.62042 
L 597.371655 124.871124 
L 597.523852 118.109483 
L 597.574585 118.276061 
L 597.676049 117.372434 
L 597.828246 119.553279 
L 598.031176 117.543674 
L 598.081908 117.625554 
L 598.132641 117.550352 
L 598.183373 117.396911 
L 598.234105 117.463659 
L 598.487767 117.35362 
L 598.538499 117.286924 
L 598.589232 117.398602 
L 598.639964 117.360087 
L 598.842893 116.824037 
L 598.944358 116.574594 
L 598.99509 115.679303 
L 599.045823 116.199318 
L 599.096555 116.287235 
L 599.147287 116.092624 
L 599.19802 116.182572 
L 599.350217 117.163383 
L 599.603879 110.234702 
L 600.111202 102.409671 
L 600.161934 103.365766 
L 600.314131 103.239545 
L 600.364864 103.301721 
L 600.415596 103.03102 
L 600.517061 103.089253 
L 600.567793 102.927578 
L 600.618525 103.203323 
L 600.669258 103.125211 
L 601.988299 101.137132 
L 602.039031 100.858753 
L 602.089764 101.132657 
L 602.241961 100.750089 
L 602.292693 100.388685 
L 602.343425 100.713164 
L 602.44489 100.767091 
L 602.546355 102.120971 
L 602.597087 104.412424 
L 602.647819 96.206284 
L 602.698552 97.633526 
L 602.749284 98.243702 
L 602.800016 94.730639 
L 602.850749 96.998327 
L 602.901481 96.678328 
L 602.952213 95.281473 
L 603.002946 96.442087 
L 603.053678 97.398057 
L 603.10441 94.614888 
L 603.205875 95.129344 
L 603.30734 100.243546 
L 603.358072 98.97342 
L 603.408805 100.852389 
L 603.611734 94.822393 
L 603.662466 93.105035 
L 603.814663 97.468684 
L 604.017593 93.759789 
L 604.119057 95.023854 
L 604.16979 95.930859 
L 604.220522 95.634675 
L 604.474184 95.297689 
L 604.82931 94.705434 
L 604.880043 95.180849 
L 604.930775 94.732818 
L 604.981507 95.018581 
L 605.133704 94.384083 
L 605.184437 94.432234 
L 605.387366 93.592321 
L 605.438098 95.101702 
L 605.488831 93.856337 
L 605.539563 94.297688 
L 605.590295 94.051906 
L 605.742492 93.081172 
L 606.351281 108.452093 
L 606.402013 105.269651 
L 606.503478 110.339941 
L 606.55421 110.318436 
L 606.604942 110.330634 
L 606.655675 110.509981 
L 606.807872 109.421613 
L 606.858604 109.851125 
L 606.909336 109.764661 
L 607.061533 109.624844 
L 607.112266 109.732863 
L 607.315195 106.821678 
L 607.518125 118.15207 
L 607.568857 117.807827 
L 607.619589 116.487924 
L 607.721054 116.695433 
L 607.873251 115.982217 
L 607.923983 116.236133 
L 607.974716 115.921387 
L 608.126913 117.941563 
L 608.329842 115.345056 
L 608.380574 115.561124 
L 608.431307 115.98542 
L 608.482039 115.853157 
L 608.93863 115.116493 
L 609.243024 114.895565 
L 609.344489 114.842099 
L 609.445954 115.589845 
L 609.648883 111.95533 
L 609.750348 114.422336 
L 609.80108 114.322247 
L 610.004009 115.481526 
L 610.156207 118.454084 
L 610.460601 115.594457 
L 610.511333 115.600006 
L 610.764995 115.288167 
L 610.917192 115.083604 
L 610.967924 114.908905 
L 611.018656 115.055893 
L 611.120121 115.183484 
L 611.170853 115.870097 
L 611.221586 119.205584 
L 611.32305 112.052581 
L 611.373783 114.899452 
L 611.475248 114.658484 
L 611.52598 114.699439 
L 611.678177 111.701347 
L 611.830374 97.707099 
L 611.982571 102.933225 
L 612.033303 102.961335 
L 612.084036 93.004124 
L 612.134768 93.564936 
L 612.1855 96.651108 
L 612.236233 95.904404 
L 612.286965 95.716021 
L 612.337697 94.271445 
L 612.38843 94.831857 
L 612.489894 94.387819 
L 612.642091 95.54181 
L 612.692824 94.962425 
L 612.845021 94.114495 
L 613.098683 96.478822 
L 613.200147 95.299608 
L 613.301612 96.134717 
L 613.352344 95.179423 
L 613.403077 95.255388 
L 613.453809 95.739654 
L 613.606006 94.753396 
L 614.316259 93.749991 
L 614.468456 93.262111 
L 614.569921 92.174781 
L 614.722118 93.329965 
L 614.77285 93.407071 
L 614.874315 90.882587 
L 614.925047 94.114698 
L 614.975779 93.942246 
L 615.026512 93.245465 
L 615.178709 78.479267 
L 615.330906 79.821128 
L 615.381638 80.913926 
L 615.483103 80.794468 
L 615.584568 82.588755 
L 615.6353 82.010303 
L 615.686032 81.014727 
L 615.736765 82.714533 
L 615.787497 80.693003 
L 615.939694 78.998281 
L 615.990426 78.388487 
L 616.142623 83.820888 
L 616.193356 82.697875 
L 616.244088 82.516622 
L 616.396285 83.217066 
L 616.548482 82.756669 
L 617.106538 81.21955 
L 617.309467 81.487532 
L 617.3602 81.265833 
L 617.410932 81.585444 
L 617.563129 79.79635 
L 617.613861 80.396915 
L 617.664594 79.255682 
L 617.715326 80.514717 
L 617.867523 80.14382 
L 617.968988 80.363099 
L 618.01972 79.994932 
L 618.070452 80.086595 
L 618.121185 80.175694 
L 618.273382 76.920859 
L 618.425579 70.255065 
L 618.577776 67.751182 
L 618.780705 69.316138 
L 618.932902 66.483086 
L 619.085099 68.007169 
L 619.135832 67.093779 
L 619.186564 67.574461 
L 619.237296 67.572466 
L 619.440226 66.422302 
L 619.490958 67.338129 
L 619.541691 66.482232 
L 619.795352 65.946719 
L 619.846085 66.04034 
L 619.896817 65.267185 
L 619.947549 67.050546 
L 619.998282 66.062879 
L 620.150479 67.221731 
L 620.302676 59.578858 
L 620.454873 66.996323 
L 620.505605 66.711226 
L 620.60707 68.158157 
L 620.809999 59.881177 
L 620.860732 58.685008 
L 620.911464 61.410216 
L 620.962196 60.89987 
L 621.114393 59.733298 
L 621.215858 61.245778 
L 621.46952 56.349892 
L 621.520252 56.629396 
L 621.570984 56.363729 
L 621.621717 55.8 
L 621.672449 56.959334 
L 621.723181 56.632484 
L 621.773914 56.673338 
L 621.824646 57.741726 
L 621.875378 56.93773 
L 621.926111 56.953001 
L 621.976843 57.721812 
L 622.078308 57.635227 
L 622.433434 57.124311 
L 622.484167 57.237711 
L 622.585631 57.501938 
L 622.636364 56.479932 
L 622.636364 56.479932 
" style="fill:none;stroke:#008000;stroke-linecap:square;stroke-width:1.5;"/>
   </g>
   <g id="patch_3">
    <path d="M 90 320.4 
L 90 43.2 
" style="fill:none;stroke:#000000;stroke-linecap:square;stroke-linejoin:miter;stroke-width:0.8;"/>
   </g>
   <g id="patch_4">
    <path d="M 648 320.4 
L 648 43.2 
" style="fill:none;stroke:#000000;stroke-linecap:square;stroke-linejoin:miter;stroke-width:0.8;"/>
   </g>
   <g id="patch_5">
    <path d="M 90 320.4 
L 648 320.4 
" style="fill:none;stroke:#000000;stroke-linecap:square;stroke-linejoin:miter;stroke-width:0.8;"/>
   </g>
   <g id="patch_6">
    <path d="M 90 43.2 
L 648 43.2 
" style="fill:none;stroke:#000000;stroke-linecap:square;stroke-linejoin:miter;stroke-width:0.8;"/>
   </g>
   <g id="legend_1">
    <g id="patch_7">
     <path d="M 97 65.878125 
L 236.346875 65.878125 
Q 238.346875 65.878125 238.346875 63.878125 
L 238.346875 50.2 
Q 238.346875 48.2 236.346875 48.2 
L 97 48.2 
Q 95 48.2 95 50.2 
L 95 63.878125 
Q 95 65.878125 97 65.878125 
z
" style="fill:#ffffff;opacity:0.8;stroke:#cccccc;stroke-linejoin:miter;"/>
    </g>
    <g id="patch_8">
     <path d="M 99 59.798437 
L 119 59.798437 
L 119 52.798437 
L 99 52.798437 
z
" style="fill:#008000;stroke:#008000;stroke-linejoin:miter;"/>
    </g>
    <g id="text_17">
     <!-- With speed estimator -->
     <g transform="translate(127 59.798437)scale(0.1 -0.1)">
      <defs>
       <path d="M 213 4666 
L 850 4666 
L 1831 722 
L 2809 4666 
L 3519 4666 
L 4500 722 
L 5478 4666 
L 6119 4666 
L 4947 0 
L 4153 0 
L 3169 4050 
L 2175 0 
L 1381 0 
L 213 4666 
z
" id="DejaVuSans-57" transform="scale(0.015625)"/>
       <path d="M 3513 2113 
L 3513 0 
L 2938 0 
L 2938 2094 
Q 2938 2591 2744 2837 
Q 2550 3084 2163 3084 
Q 1697 3084 1428 2787 
Q 1159 2491 1159 1978 
L 1159 0 
L 581 0 
L 581 4863 
L 1159 4863 
L 1159 2956 
Q 1366 3272 1645 3428 
Q 1925 3584 2291 3584 
Q 2894 3584 3203 3211 
Q 3513 2838 3513 2113 
z
" id="DejaVuSans-68" transform="scale(0.015625)"/>
       <path d="M 2906 2969 
L 2906 4863 
L 3481 4863 
L 3481 0 
L 2906 0 
L 2906 525 
Q 2725 213 2448 61 
Q 2172 -91 1784 -91 
Q 1150 -91 751 415 
Q 353 922 353 1747 
Q 353 2572 751 3078 
Q 1150 3584 1784 3584 
Q 2172 3584 2448 3432 
Q 2725 3281 2906 2969 
z
M 947 1747 
Q 947 1113 1208 752 
Q 1469 391 1925 391 
Q 2381 391 2643 752 
Q 2906 1113 2906 1747 
Q 2906 2381 2643 2742 
Q 2381 3103 1925 3103 
Q 1469 3103 1208 2742 
Q 947 2381 947 1747 
z
" id="DejaVuSans-64" transform="scale(0.015625)"/>
       <path d="M 2194 1759 
Q 1497 1759 1228 1600 
Q 959 1441 959 1056 
Q 959 750 1161 570 
Q 1363 391 1709 391 
Q 2188 391 2477 730 
Q 2766 1069 2766 1631 
L 2766 1759 
L 2194 1759 
z
M 3341 1997 
L 3341 0 
L 2766 0 
L 2766 531 
Q 2569 213 2275 61 
Q 1981 -91 1556 -91 
Q 1019 -91 701 211 
Q 384 513 384 1019 
Q 384 1609 779 1909 
Q 1175 2209 1959 2209 
L 2766 2209 
L 2766 2266 
Q 2766 2663 2505 2880 
Q 2244 3097 1772 3097 
Q 1472 3097 1187 3025 
Q 903 2953 641 2809 
L 641 3341 
Q 956 3463 1253 3523 
Q 1550 3584 1831 3584 
Q 2591 3584 2966 3190 
Q 3341 2797 3341 1997 
z
" id="DejaVuSans-61" transform="scale(0.015625)"/>
       <path d="M 1959 3097 
Q 1497 3097 1228 2736 
Q 959 2375 959 1747 
Q 959 1119 1226 758 
Q 1494 397 1959 397 
Q 2419 397 2687 759 
Q 2956 1122 2956 1747 
Q 2956 2369 2687 2733 
Q 2419 3097 1959 3097 
z
M 1959 3584 
Q 2709 3584 3137 3096 
Q 3566 2609 3566 1747 
Q 3566 888 3137 398 
Q 2709 -91 1959 -91 
Q 1206 -91 779 398 
Q 353 888 353 1747 
Q 353 2609 779 3096 
Q 1206 3584 1959 3584 
z
" id="DejaVuSans-6f" transform="scale(0.015625)"/>
       <path d="M 2631 2963 
Q 2534 3019 2420 3045 
Q 2306 3072 2169 3072 
Q 1681 3072 1420 2755 
Q 1159 2438 1159 1844 
L 1159 0 
L 581 0 
L 581 3500 
L 1159 3500 
L 1159 2956 
Q 1341 3275 1631 3429 
Q 1922 3584 2338 3584 
Q 2397 3584 2469 3576 
Q 2541 3569 2628 3553 
L 2631 2963 
z
" id="DejaVuSans-72" transform="scale(0.015625)"/>
      </defs>
      <use xlink:href="#DejaVuSans-57"/>
      <use x="96.626953" xlink:href="#DejaVuSans-69"/>
      <use x="124.410156" xlink:href="#DejaVuSans-74"/>
      <use x="163.619141" xlink:href="#DejaVuSans-68"/>
      <use x="226.998047" xlink:href="#DejaVuSans-20"/>
      <use x="258.785156" xlink:href="#DejaVuSans-73"/>
      <use x="310.884766" xlink:href="#DejaVuSans-70"/>
      <use x="374.361328" xlink:href="#DejaVuSans-65"/>
      <use x="435.884766" xlink:href="#DejaVuSans-65"/>
      <use x="497.408203" xlink:href="#DejaVuSans-64"/>
      <use x="560.884766" xlink:href="#DejaVuSans-20"/>
      <use x="592.671875" xlink:href="#DejaVuSans-65"/>
      <use x="654.195312" xlink:href="#DejaVuSans-73"/>
      <use x="706.294922" xlink:href="#DejaVuSans-74"/>
      <use x="745.503906" xlink:href="#DejaVuSans-69"/>
      <use x="773.287109" xlink:href="#DejaVuSans-6d"/>
      <use x="870.699219" xlink:href="#DejaVuSans-61"/>
      <use x="931.978516" xlink:href="#DejaVuSans-74"/>
      <use x="971.1875" xlink:href="#DejaVuSans-6f"/>
      <use x="1032.369141" xlink:href="#DejaVuSans-72"/>
     </g>
    </g>
   </g>
  </g>
 </g>
 <defs>
  <clipPath id="pf27e7b98b0">
   <rect height="277.2" width="558" x="90" y="43.2"/>
  </clipPath>
 </defs>
</svg>
